<?xml version="1.0" encoding="UTF-8"?>
<svg width="64px" height="64px" viewBox="0 0 64 64" version="1.1" xmlns="http://www.w3.org/2000/svg" xmlns:xlink="http://www.w3.org/1999/xlink">
    <title>icons/Code Injection</title>
    <g id="Symbols" stroke="none" stroke-width="1" fill="none" fill-rule="evenodd">
        <g id="icons/Code-Injection" transform="translate(0, 6.4002)" fill="#52525B" fill-rule="nonzero">
            <path d="M8.66297168,24.6621949 C9.26432159,24.0630239 9.60179509,23.2487107 9.60056388,22.3998137 L9.60056388,9.59992017 C9.60056388,7.83262367 11.0332408,6.39994678 12.8005373,6.39994678 C14.5678338,6.39994678 16.0005107,4.96726989 16.0005107,3.19997339 C16.0005107,1.43267689 14.5678338,0 12.8005373,0 C7.50778128,0 3.2006171,4.30716418 3.2006171,9.59992017 L3.2006171,21.0750247 L0.938235916,23.3374059 C0.337548563,23.9370727 0,24.7510082 0,25.5997871 C0,26.448566 0.337548563,27.2625015 0.938235916,27.8621683 L3.2006171,30.1245495 L3.2006171,41.5996541 C3.2006171,46.8924101 7.50778128,51.1995742 12.8005373,51.1995742 C14.5678338,51.1995742 16.0005107,49.7668973 16.0005107,47.9996008 C16.0005107,46.2323043 14.5678338,44.7996275 12.8005373,44.7996275 C11.0332408,44.7996275 9.60056388,43.3669506 9.60056388,41.5996541 L9.60056388,28.7997605 C9.60179509,27.9508635 9.26432159,27.1365503 8.66297168,26.5373793 L7.72537948,25.5997871 L8.66297168,24.6621949 Z M63.7569135,24.3741973 C63.5956542,23.9864206 63.3597132,23.63414 63.0625193,23.3374059 L60.8001381,21.0750247 L60.8001381,9.59992017 C60.8001381,4.30716418 56.4929739,0 51.2002179,0 C49.4329214,0 48.0002446,1.43267689 48.0002446,3.19997339 C48.0002446,4.96726989 49.4329214,6.39994678 51.2002179,6.39994678 C52.9675145,6.39994678 54.4001913,7.83262367 54.4001913,9.59992017 L54.4001913,22.3998137 C54.3993145,23.2486404 54.7367338,24.0628229 55.3377835,24.6621949 L56.2753757,25.5997871 L55.3377835,26.5373793 C54.7364336,27.1365503 54.3989601,27.9508635 54.4001913,28.7997605 L54.4001913,41.5996541 C54.4001913,43.3669506 52.9675145,44.7996275 51.2002179,44.7996275 C49.4329214,44.7996275 48.0002446,46.2323043 48.0002446,47.9996008 C48.0002446,49.7668973 49.4329214,51.1995742 51.2002179,51.1995742 C56.4929739,51.1995742 60.8001381,46.8924101 60.8001381,41.5996541 L60.8001381,30.1245495 L63.0625193,27.8621683 C63.9774442,26.9465964 64.2514281,25.570364 63.7569135,24.3741973 L63.7569135,24.3741973 Z M40.6307058,10.5087126 C39.8638393,9.7611831 38.7743934,9.4458638 37.7268077,9.66823475 C36.679222,9.89060571 35.8118146,10.6213061 35.4147492,11.6159034 L22.6276556,37.2156905 C22.3129577,38.0044536 22.3250372,38.8860186 22.6612288,39.6658629 C22.9974203,40.4457072 23.6300919,41.0597345 24.4196406,41.372456 C26.0622311,42.0219768 27.9214028,41.2266169 28.586006,39.5900708 L41.3698997,13.9902837 C41.8546775,12.7880101 41.5637789,11.4119331 40.6339058,10.5087126 L40.6307058,10.5087126 Z" id="Shape"></path>
        </g>
    </g>
</svg>