<svg height="64" viewBox="0 0 64 64" width="64" xmlns="http://www.w3.org/2000/svg"><g fill="#808080" transform="translate(0 12.314064)"><path d="m0 38.6540121h5.63244176v-17.0629854h18.77480584v17.0629854h5.5772218v-38.6540121h-5.5772218v16.4003451h-18.77480584v-16.4003451h-5.63244176z"/><path d="m51.078516 39.3718723c8.1173425 0 12.921484-5.6324418 12.921484-12.4797239 0-4.6384814-3.5340811-11.4305436-11.0440035-11.4305436h-.3865401v-.4417601l10.3813633-7.28904228v-7.6755824h-22.8610872v4.96980155h17.5047455v.44176014l-11.0440035 8.17256259v6.515962h4.3071614c4.5280414 0 7.5651424 2.7057808 7.5651424 6.8472821 0 4.3623814-3.4236411 7.1233823-7.3442623 7.1233823-3.8654012 0-6.5159621-2.981881-6.5159621-6.5159621h-5.3563416c0 5.3563417 3.8654012 11.7618637 11.8723037 11.7618637z"/></g></svg>