<svg viewBox="0 0 64 64" xmlns="http://www.w3.org/2000/svg"><g fill="none" fill-rule="evenodd"><path d="m11.5 46.3333333h41c.5522847 0 1 .4477153 1 1 0 .5522848-.4477153 1-1 1h-41c-.5522847 0-1-.4477152-1-1 0-.5522847.4477153-1 1-1z" fill="#e5e5e5"/><path d="m11.5 54h41c.5522847 0 1 .4477153 1 1s-.4477153 1-1 1h-41c-.5522847 0-1-.4477153-1-1s.4477153-1 1-1z" fill="#e5e5e5"/><path d="m15.5 15.6666667h19.5c.5522847 0 1 .4477152 1 1 0 .5522847-.4477153 1-1 1h-19.5c-.5522847 0-1-.4477153-1-1 0-.5522848.4477153-1 1-1z" fill="#071d34"/><path d="m11.5 23.3333333h15.4c.5522847 0 1 .4477153 1 1 0 .5522848-.4477153 1-1 1h-15.4c-.5522847 0-1-.4477152-1-1 0-.5522847.4477153-1 1-1z" fill="#071d34"/><path d="m11.5 31h41c.5522847 0 1 .4477153 1 1s-.4477153 1-1 1h-41c-.5522847 0-1-.4477153-1-1s.4477153-1 1-1z" fill="#e5e5e5"/><path d="m11.5 38.6666667h41c.5522847 0 1 .4477152 1 1 0 .5522847-.4477153 1-1 1h-41c-.5522847 0-1-.4477153-1-1 0-.5522848.4477153-1 1-1z" fill="#e5e5e5"/><path d="m11.5 8h17.8c.5522847 0 1 .44771525 1 1s-.4477153 1-1 1h-17.8c-.5522847 0-1-.44771525-1-1s.4477153-1 1-1z" fill="#071d34"/></g></svg>