<svg height="32" width="32" xmlns="http://www.w3.org/2000/svg"><g fill="none" fill-rule="evenodd"><path d="m2 4h28v24h-28z" fill="#fff"/><g fill="#eb5f3f"><path d="m32 6c0-2.667-1.333-4-4-4h-24c-1.105 0-2.047.39-2.828 1.172-.782.78-1.172 1.723-1.172 2.828v20c0 2.667 1.333 4 4 4h24c2.667 0 4-1.333 4-4zm-28 .667c0-.594.274-1.005.823-1.232s1.033-.131 1.453.289.516.904.29 1.453c-.228.549-.639.823-1.233.823-.889 0-1.333-.444-1.333-1.333zm4 0c0-.594.274-1.005.823-1.232s1.033-.131 1.453.289.516.904.29 1.453c-.228.549-.639.823-1.233.823-.889 0-1.333-.444-1.333-1.333zm4 0c0-.594.274-1.005.823-1.232s1.033-.131 1.453.289.516.904.29 1.453c-.228.549-.639.823-1.233.823-.889 0-1.333-.444-1.333-1.333zm17.333 19.333c0 .889-.444 1.333-1.333 1.333h-24c-.889 0-1.333-.444-1.333-1.333v-14c0-.184.065-.341.195-.471a.643.643 0 0 1 .471-.196h25.334c.444 0 .666.223.666.667z"/><path d="m10.333 16c0 .667.334 1 1 1 .223 0 .334.111.334.333v5.334c0 .666.333 1 1 1 .666 0 1-.334 1-1v-5.334a.32.32 0 0 1 .097-.235.322.322 0 0 1 .236-.098c.667 0 1-.333 1-1s-.333-1-1-1h-2.667a.964.964 0 0 0 -.707.293.963.963 0 0 0 -.293.707zm-5 7.667c.667 0 1-.334 1-1v-1.334c0-.128.056-.224.167-.288a.313.313 0 0 1 .333 0c.111.064.167.16.167.288v1.334c0 .666.333 1 1 1s1-.334 1-1v-6.667a.938.938 0 0 0 -.5-.866.94.94 0 0 0 -1 0 .938.938 0 0 0 -.5.866v2.667c0 .222-.111.333-.333.333-.223 0-.334-.111-.334-.333v-2.667a.936.936 0 0 0 -.5-.866.94.94 0 0 0 -1 0 .938.938 0 0 0 -.5.866v6.667c0 .666.334 1 1 1zm18.334-2.334c.001 1.554.78 2.332 2.333 2.334h1.333c.667 0 1-.334 1-1 0-.667-.333-1-1-1h-1.333c-.222 0-.333-.111-.333-.334v-5.333a.938.938 0 0 0 -.5-.866.94.94 0 0 0 -1 0 .936.936 0 0 0 -.5.866zm-6.334 2.334c.667 0 1-.334 1-1v-2.78c0-.039.02-.063.056-.073.037-.01.066 0 .086.034a.986.986 0 0 0 .858.452c.366 0 .652-.15.859-.452.02-.033.048-.045.085-.034.038.01.056.034.056.073v2.78c0 .666.334 1 1 1 .667 0 1-.334 1-1v-6.667c-.001-.506-.246-.827-.734-.962s-.863.014-1.124.447l-.856 1.428a.313.313 0 0 1 -.286.161.313.313 0 0 1 -.285-.16l-.856-1.429c-.262-.433-.636-.582-1.125-.447-.488.135-.732.456-.734.962v6.667c0 .666.334 1 1 1z"/></g></g></svg>