<svg height="32" width="32" xmlns="http://www.w3.org/2000/svg" xmlns:xlink="http://www.w3.org/1999/xlink"><defs><filter id="a" height="111.2%" width="120.6%" x="-10.3%" y="-4.6%"><feOffset dy="5" in="SourceAlpha" result="shadowOffsetOuter1"/><feGaussianBlur in="shadowOffsetOuter1" result="shadowBlurOuter1" stdDeviation="8.5"/><feColorMatrix in="shadowBlurOuter1" values="0 0 0 0 0 0 0 0 0 0 0 0 0 0 0 0 0 0 0.09 0"/></filter><rect id="b" height="499" rx="4" width="272"/><mask id="c" fill="#fff"><path d="m.99 0h18.01v24h-18.01z" fill="#fff" fill-rule="evenodd"/></mask></defs><g fill="none" fill-rule="evenodd"><g transform="translate(-200 -135)"><use fill="#000" filter="url(#a)" xlink:href="#b"/><use fill="#fff" xlink:href="#b"/></g><path d="m32 2.667c0-1.778-.889-2.667-2.667-2.667h-26.666c-.737 0-1.365.26-1.887.781-.519.52-.78 1.15-.78 1.886v26.666c0 1.778.889 2.667 2.667 2.667h26.666c1.778 0 2.667-.889 2.667-2.667z" fill="#3eb0ef"/><path d="m11 0h24v24h-24z"/><path d="m2.998-.01v18.674c-.054.558.175.951.687 1.18.525.2.965.084 1.322-.35l2.689-2.683a.403.403 0 0 1 .294-.122c.116 0 .214.041.295.122l2.69 2.684c.245.274.552.417.92.428.139 0 .273-.026.401-.078.512-.23.741-.623.687-1.18v-18.727l-9.985.05z" fill="#fff" mask="url(#c)" transform="translate(13)"/></g></svg>