<svg height="32" width="32" xmlns="http://www.w3.org/2000/svg"><g fill="none" fill-rule="evenodd"><path d="m1 2h25v24h-25z" fill="#fff" fill-rule="nonzero"/><path d="m27.333 24.667v-22c0-1.778-.889-2.667-2.666-2.667h-22c-.737 0-1.365.26-1.887.781-.519.52-.78 1.15-.78 1.886v22c0 1.777.889 2.666 2.667 2.666h22c1.777 0 2.666-.889 2.666-2.666z" fill="#c064c4"/><path d="m19.113 12.933c-.126-.603-.497-.911-1.112-.925-.616-.014-1 .277-1.154.873l-2.123 4.667a.313.313 0 0 1 -.26.192.313.313 0 0 1 -.3-.117l-1.467-1.752c-.34-.462-.796-.67-1.368-.625-.571.044-.99.32-1.254.829l-3.315 5.525a.624.624 0 0 0 -.008.671.624.624 0 0 0 .58.338h14.668c.236 0 .42-.097.552-.293a.632.632 0 0 0 .067-.621zm-8.446-4.933c0 1.778-.89 2.667-2.667 2.667-1.778 0-2.667-.89-2.667-2.667 0-1.778.89-2.667 2.667-2.667 1.778 0 2.667.89 2.667 2.667z" fill="#fff"/><path d="m30.667 8c-.369 0-.683.13-.943.39s-.39.575-.39.943v19.334c0 .444-.223.666-.667.666h-19.334c-.889 0-1.333.445-1.333 1.334s.444 1.333 1.333 1.333h20c1.778 0 2.667-.889 2.667-2.667v-20c0-.889-.444-1.333-1.333-1.333z" fill="#c064c4"/></g></svg>