<svg height="32" width="32" xmlns="http://www.w3.org/2000/svg"><g fill="none" fill-rule="evenodd"><path d="m32 2.667c0-1.778-.889-2.667-2.667-2.667h-26.666c-.737 0-1.365.26-1.887.781-.519.52-.78 1.15-.78 1.886v26.666c0 1.778.889 2.667 2.667 2.667h26.666c1.778 0 2.667-.889 2.667-2.667z" fill="#3eb0ef"/><path d="m23.778 12.111c0 3.111-1.556 4.667-4.667 4.667s-4.667-1.556-4.667-4.667 1.556-4.667 4.667-4.667 4.667 1.556 4.667 4.667zm-4.667-6.611c.778 0 1.167-.389 1.167-1.167v-.777c0-.45-.195-.786-.584-1.01-.388-.225-.777-.225-1.166 0-.39.224-.584.56-.584 1.01v.777c0 .778.39 1.167 1.167 1.167zm-6.323 1.935c.55.552 1.1.554 1.653.004.552-.55.553-1.1.003-1.653l-.549-.55c-.55-.552-1.101-.554-1.653-.004-.553.55-.554 1.101-.005 1.654l.55.55zm-2.232 5.843h.777c.778 0 1.167-.39 1.167-1.167 0-.778-.389-1.167-1.167-1.167h-.777c-.778 0-1.167.39-1.167 1.167 0 .778.389 1.167 1.167 1.167zm14.878 3.509c-.549-.512-1.089-.502-1.62.029-.53.53-.54 1.07-.028 1.62l.549.55c.55.55 1.1.55 1.65 0s.55-1.1 0-1.65l-.55-.549zm.288-4.676c0 .778.39 1.167 1.167 1.167h.778c.777 0 1.166-.39 1.166-1.167 0-.778-.389-1.167-1.166-1.167h-.778c-.322 0-.597.114-.825.342a1.124 1.124 0 0 0 -.342.825zm-1.112-4.332c.323 0 .598-.114.824-.344l.551-.549c.55-.55.55-1.1 0-1.65s-1.1-.55-1.65 0l-.55.55c-.366.368-.45.792-.251 1.271.198.48.557.72 1.076.722zm-2.699 14.577c-.771 0-1.522.12-2.254.364a.369.369 0 0 0 -.25.254.369.369 0 0 0 .063.35 11.968 11.968 0 0 1 2.362 5.684c.02.142.103.214.247.214h4.906c.836 0 1.492-.343 1.967-1.031-.737-3.89-3.084-5.835-7.042-5.835zm-12.267-2.388c-2.518-.004-4.758.783-6.72 2.362a.367.367 0 0 0 -.146.31v4.2c.004 1.588.8 2.382 2.388 2.382h14.664a.371.371 0 0 0 .3-.14.37.37 0 0 0 .082-.319c-1.083-5.863-4.606-8.795-10.568-8.795z" fill="#fff"/></g></svg>