<svg viewBox="0 0 32 32" xmlns="http://www.w3.org/2000/svg"><g fill="none" fill-rule="evenodd"><path d="m31.252 8.488a4.008 4.008 0 0 0 -2.824-2.823c-2.487-.665-12.47-.665-12.47-.665s-9.977 0-12.47.665a4.006 4.006 0 0 0 -2.823 2.823c-.665 2.488-.665 7.682-.665 7.682s0 5.194.665 7.682a4.001 4.001 0 0 0 2.823 2.823c2.493.666 12.47.666 12.47.666s9.983 0 12.47-.666a4.002 4.002 0 0 0 2.824-2.823c.665-2.488.665-7.682.665-7.682s0-5.194-.665-7.682" fill="#d9252a"/><path d="m12.77 20.958 8.291-4.788-8.291-4.788z" fill="#fffffe"/></g></svg>