<svg height="96" width="96" xmlns="http://www.w3.org/2000/svg"><g fill="none" fill-rule="evenodd" stroke="#9baeb8" stroke-linecap="round" stroke-linejoin="round"><path d="m26.215 6.686a46.265 46.265 0 0 1 22.285-5.686c25.664 0 46.5 20.837 46.5 46.5 0 25.665-20.836 46.5-46.5 46.5s-46.5-20.835-46.5-46.5a46.254 46.254 0 0 1 6.378-23.505"/><path d="m17.5 4c6.899 0 12.5 5.602 12.5 12.5 0 6.9-5.601 12.5-12.5 12.5s-12.5-5.6-12.5-12.5c0-6.896 5.6-12.5 12.5-12.5z" stroke-width="1.5"/><path d="m3 53.174 4.905-5.686 14.262-5.537 5.612 8.02m-7.018 11.029 19.508-29.778 10.28-1.45 8.566-8.772 14.651 22.926m-3.933-6.237 9.184-11.02 7.155 12.099 8.828 4.642"/><path d="m59.65 23-3.237 11.653-9.876 1.591-5.7-3.407m-18.605 10.69-7.124 6.674-11.666 6.922m76.451-28.477-3.083 10.222-4.829 2.368m-67.195 11.186h6.421m-8.207 2.266h4.344m-.7-4.44h8.142m28.623-16.15h13.177m-11.273-2.092h11.816m-4.695-2.165h5.088m-2.691-2.098h3.459m-1.768-2.052h2.096m-49.016 22.414h7.428m-1.916-2.145h4.459m27.016-9.645 8.537 6.632 7.364 2.418 3.28 5.195m5.081-11.52h5.181m-3.408-2.252h4.597m-2.854-2.19h3.51m-1.514-2.181h2.377m-74.715 27.425s9.818-.475 19.29 3.541 16.635 8.617 16.635 8.617m-4.495-3.249s11.926-8.47 30.465-9.717c18.54-1.25 29.08.463 29.08.463"/><path d="m76.596 63.298v-21.157m-.096.143s-2.34 3.56-4.538 4.495m4.538-.768s-2.34 3.56-4.538 4.495m4.516-1.124s-3.052 4.157-5.917 5.249m5.899-1.385s-3.584 4.157-6.949 5.249m7.137-16.211s2.341 3.56 4.538 4.495m-4.538-.768s2.341 3.56 4.538 4.495m-4.515-1.124s3.051 4.157 5.916 5.249m-5.9-1.385s3.584 4.157 6.95 5.249m-22.425 17.385v-20.263m-.092.137s-2.242 3.409-4.345 4.305m4.345-.736s-2.242 3.41-4.345 4.305m4.324-1.077s-2.923 3.982-5.666 5.028m5.65-1.327s-3.432 3.981-6.654 5.027m6.833-15.525s2.241 3.409 4.347 4.305m-4.347-.736s2.241 3.41 4.347 4.305m-4.325-1.077s2.922 3.982 5.666 5.028m-5.65-1.327s3.433 3.981 6.655 5.027m-48.057 13.096v-14.086m-.09.134s-2.19 3.33-4.244 4.204m4.244-.718s-2.19 3.329-4.244 4.204m4.223-1.051s-1.76 2.397-3.813 3.92m3.797-.307s-.796.923-1.975 1.987m2.15-12.239s2.19 3.33 4.244 4.204m-4.244-.718s2.19 3.329 4.244 4.204m-4.223-1.051s2.854 3.887 5.533 4.908m-5.517-1.295s3.352 3.887 6.5 4.91m22.147 9.095v-20.97m26.815 12.294v-7.824m-.09.134s-2.19 3.33-4.244 4.204m4.244-.718s-2.19 3.33-4.244 4.204m4.223-1.051s-2.853 3.887-5.533 4.91m5.693-11.549s2.189 3.33 4.244 4.204m-4.244-.718s1.011 1.538 2.304 2.798m-2.283.355s.275.375.735.923m-27.748-11.976s-3.131 4.762-6.071 6.014m6.071-1.027s-3.131 4.761-6.071 6.012m6.041-1.503s-4.082 5.561-7.914 7.022m7.892-1.853s-2.908 3.374-6.322 5.556m6.573-20.22s3.13 4.761 6.07 6.013m-6.07-1.027s3.13 4.761 6.07 6.012m-6.04-1.503s4.082 5.561 7.914 7.022m-7.891-1.853s2.793 3.241 6.118 5.425m-10.512-30.433v-8.296m-.058-.584s-1.437 2.185-2.786 2.76m2.786.2s-1.437 2.185-2.786 2.76m2.772-.018s-1.872 2.551-3.631 3.222m3.736-8.924s1.437 2.185 2.786 2.76m-2.786.2s1.437 2.185 2.786 2.76m-2.772-.018s.626 1.38 2.013 2.377m-17.06 7.189v-15.82m-.072.108s-1.75 2.661-3.393 3.36m3.393-.573s-1.75 2.661-3.393 3.36m3.376-.84s-2.28 3.108-4.423 3.924m4.41-1.035s-2.68 3.108-5.195 3.925m5.336-12.12s1.75 2.66 3.393 3.36m-3.393-.574s1.75 2.661 3.393 3.36m-3.376-.84s2.282 3.108 4.423 3.924m-4.41-1.035s2.68 3.108 5.195 3.925" stroke-width="1.5"/><path d="m11.904 61.77h2.324m-2.324 10.225h2.324m-7.7-4.768h2.324m15.61 4.848h1.124m-7.701-4.768h2.324m14.409 15.588h2.324m-2.324-10.74h2.324m-7.7 16.197h2.325m7.903 0h.682m-.682-11.074h.682m-10.91.334h2.325m14.408-5.378h.682m-6.057-4.767h2.324m14.41 15.588h2.323m-7.7-15.507h1.163m15.57-5.378h2.325m-2.325 20.964h2.324m-2.324-10.74h2.324m-7.7 16.197h2.323m-2.323-10.74h2.323m14.41-15.601h2.323m-2.324 10.225h2.324m-7.7-4.768h2.325m-2.325 10.224h2.324m14.409-15.6h1.486m-6.863 5.456h2.325" opacity=".6"/></g></svg>