<svg height="48" viewBox="0 0 48 48" width="48" xmlns="http://www.w3.org/2000/svg"><g fill="none" fill-rule="evenodd"><path d="m11.4139325 12c.3466613 0 .5860675.5059743.5860675 1.3779712v4.1172046l-5.56497754 5.8888231c-.58002995.6138348-.58002995 1.6181674 0 2.2320022l5.56497754 5.8888231v4.1172046c0 .8719318-.2394772 1.3779712-.5860675 1.3779712-.1413494 0-.3004919-.0841013-.4685486-.2620027l-10.51036144-11.1219962c-.58002995-.6138348-.58002995-1.6181674 0-2.2320022l10.51036144-11.1219962c.1680212-.1778364.3271992-.2620027.4685486-.2620027zm25.172135 0c.1413494 0 .3004919.0841013.4685486.2620027l10.5103614 11.1219962c.58003.6138348.58003 1.6181674 0 2.2320022l-10.5103614 11.1219962c-.1680212.1778364-.3271992.2620027-.4685486.2620027-.3466613 0-.5860675-.5059743-.5860675-1.3779712v-4.1172046l5.5649775-5.8888231c.58003-.6138348.58003-1.6181674 0-2.2320022l-5.5649775-5.8888231v-4.1172046c0-.8719318.2394772-1.3779712.5860675-1.3779712z" fill="#87e6e5"/><rect fill="#a0db77" height="4" rx="2" transform="matrix(.25881905 -.96592583 .96592583 .25881905 -6.927509 40.296504)" width="35.57" x="5.009" y="22.662"/></g></svg>