<svg height="48" viewBox="0 0 48 48" width="48" xmlns="http://www.w3.org/2000/svg"><g fill="none" fill-rule="evenodd"><path d="m2.52730803 17.9196415c-.08401059.0548752-.16359956.0808465-.23427428.0808465-.17333065 0-.29303375-.1561292-.29303375-.4252025v-13.5752855c0-2.209139 1.790861-4 4-4h27.9995117c2.209139 0 4 1.790861 4 4v5.999512c0 2.209139-1.790861 4-4 4h-25.9995117c-.16500775 0-.3276819-.0099914-.48745046-.0294021z" fill="#96d07c"/><path d="m7.51066 44.9703679-4.98335197 2.9482976c-.08401059.0548752-.16359956.0808465-.23427428.0808465-.17333065 0-.29303375-.1561292-.29303375-.4252025v-12.5743095c0-2.209139 1.790861-4 4-4h20c2.209139 0 4 1.790861 4 4v6c0 2.209139-1.790861 4-4 4h-18c-.1656583 0-.32896456-.0100703-.48934-.0296321z" fill="#73e1e0"/><path d="m46 19.5v13.5747975c0 .2690733-.1197031.4252025-.2930337.4252025-.0706748 0-.1502637-.0259713-.2342743-.0808465l-4.9839817-3.9487089c-.1601732.0195114-.3232688.0295554-.4887103.0295554h-22c-2.209139 0-4-1.790861-4-4v-6c0-2.209139 1.790861-4 4-4h24c2.209139 0 4 1.790861 4 4z" fill="#ffd476"/></g></svg>