<svg height="48" viewBox="0 0 48 48" width="48" xmlns="http://www.w3.org/2000/svg"><g fill="none" fill-rule="evenodd"><path d="m23.4917015 33.6030641-20.55329892-2.1709608c-.54922942-.0580129-.94743912-.55028-.88942627-1.0995094.02577519-.2440234.1403723-.470052.32198091-.6350674l31.88995328-28.97624117c.4087509-.37140428 1.0411917-.34112885 1.4125959.06762206.2497557.27486992.3266069.66551357.1995837 1.01450708l-11.3366544 31.14720193c-.1570884.4315969-.5879792.7006928-1.0447342.6524477z" fill="#ffd476"/><path d="m24.3163597 33.2881029c-.2857022-.2742567-.3826351-.6912797-.2471837-1.0634294l11.022747-30.2847484c.1346845-.37004267.4740019-.62658897.8667439-.65531555.5508133-.04028849 1.0299959.37357363 1.0702844.92438692l3.2148044 43.95192913c.0206798.282729-.0796111.5609496-.2759264.7654577-.3824621.3984234-1.0154949.4113625-1.4139182.0289004z" fill="#ffc445"/></g></svg>