<svg height="48" viewBox="0 0 48 48" width="48" xmlns="http://www.w3.org/2000/svg"><g fill="none" fill-rule="nonzero"><path d="m30 29c2.7614237 0 5-2.2385763 5-5 0-9.3888407-7.6111593-17-17-17-9.38884075 0-17 7.6111593-17 17s7.61115925 17 17 17c1.3333404 0 2.6447683-.1533762 3.9154603-.4528294-2.4058229-1.2152061-4.3644037-2.6858831-5.8698024-4.4156891-1.9393441-2.2284388-3.2762149-5.0588816-4.0162773-8.4758366-.6689116-1.0903639-1.0293806-2.3474141-1.0293806-3.6556449 0-3.8659932 3.1340068-7 7-7s7 3.1340068 7 7c0 2.125 2.7040312 5 5 5z" fill="#79c9fc"/><path d="m42 29c2.7614237 0 5-2.2385763 5-5 0-9.3888407-7.6111593-17-17-17s-17 7.6111593-17 17 7.6111593 17 17 17c1.3333404 0 2.6447683-.1533762 3.9154603-.4528294-2.4058229-1.2152061-4.5103547-2.5689743-5.8698024-4.4156891-1.9831579-2.6939815-5.0456579-8.9439815-5.0456579-12.1314815 0-3.8659932 3.1340068-7 7-7s7 3.1340068 7 7c.02301 2.3435241 2.7040312 5 5 5z" fill="#ffc445" transform="matrix(-1 0 0 -1 60 48)"/></g></svg>