<svg height="48" viewBox="0 0 48 48" width="48" xmlns="http://www.w3.org/2000/svg"><g fill="none" fill-rule="evenodd"><path d="m26 15.3994248v.0291466 6.0409167c-.1536405.0274686-.3058324.0432619-.4126216.0432619-.0899667 0-.1642805-.0359466-.2096224-.0921241l-.1116776-.1383656-.1343361-.1164937c-.8881106-.7701522-2.0316443-1.2024452-3.2361913-1.2024452-2.6916373 0-4.895551 2.1442344-4.895551 4.8171429s2.2039137 4.8171428 4.895551 4.8171428c1.3016612 0 2.4193913-.3097878 3.2275935-1.2362374.3310828-.3795234.4451285-.4540483.4642339-.4540483.0941536 0 .2478668.0166429.4126216.0451377v4.6189695.0291466.3994248c0 2.209139-1.790861 4-4 4h-18c-2.209139 0-4-1.790861-4-4v-18c0-2.209139 1.790861-4 4-4h18c2.209139 0 4 1.790861 4 4z" fill="#79c9fc"/><path d="m27.9998779 32.5714286c0 .7889782.6573947 1.4285714 1.4683322 1.4285714h17.0633357c.8109374 0 1.4683321-.6395932 1.4683321-1.4285714v-17.1428572c0-.7889782-.6573947-1.4285714-1.4683321-1.4285714h-17.0633357c-.8109375 0-1.4683322.6395932-1.4683322 1.4285714v6.4069502c-.0664412.4295298-.1431194.809928-.2534869.9729427-.3218601.4753928-1.5061201.7042857-2.1590126.7042857-.7168011 0-1.355107-.3269775-1.7659405-.8359895-.5117383-.4437696-1.1864438-.7134391-1.9258869-.7134391-1.5991687 0-2.895551 1.2612778-2.895551 2.8171429 0 1.555865 1.2963823 2.8171428 2.895551 2.8171428.6443025 0 1.3443833-.1198801 1.7204737-.5509959.5235782-.6001826 1.1206797-1.1392898 1.9713537-1.1392898.6528925 0 2.0039167.2692817 2.2352908.7042857.0592507.1113967.1176547.3100699.1772087.5440148z" fill="#87e6e5"/></g></svg>