<svg height="48" viewBox="0 0 48 48" width="48" xmlns="http://www.w3.org/2000/svg"><g fill="none" fill-rule="evenodd"><path d="m27.2217723 9.04506931 14-2.77685951c2.166925-.42980332 4.2719893.9784121 4.7017926 3.14533716.0508344.25629025.0764351.5169447.0764351.77822774v22.3896063c0 1.9091151-1.349138 3.5521333-3.2217723 3.9235649l-14 2.7768595c-2.166925.4298033-4.2719893-.9784121-4.7017926-3.1453372-.0508344-.2562902-.0764351-.5169447-.0764351-.7782277v-22.3896063c0-1.9091151 1.349138-3.5521333 3.2217723-3.92356489z" fill="#b7f0ef" opacity=".7"/><path d="m6.77822775 6.2682098 13.99999995 2.77685951c1.8726343.37143159 3.2217723 2.01444979 3.2217723 3.92356489v22.3896063c0 2.209139-1.790861 4-4 4-.261283 0-.5219375-.0256007-.7782277-.0764351l-14.00000005-2.7768595c-1.87263427-.3714316-3.22177225-2.0144498-3.22177225-3.9235649v-22.3896063c0-2.20913899 1.790861-3.99999999 4-3.99999999.26128305 0 .5219375.02560066.77822775.07643509z" fill="#87e6e5"/><path d="m22 10c1.1666667.2291667 2.0179036.625 2.5537109 1.1875s1.0179037 1.6875 1.4462891 3.375v24.65625c0 1.6979167.4241536 3.7395833 1.2724609 6.125l-2.71875-3.46875-1.571289 3.46875c-.6549479-2.1458333-.9824219-4.1145833-.9824219-5.90625s0-11.6041667 0-29.4375z" fill="#61c1fd"/></g></svg>