<svg height="48" viewBox="0 0 48 48" width="48" xmlns="http://www.w3.org/2000/svg"><g fill="none" fill-rule="evenodd"><path d="m23.8628277 0v48l-20.53991122-11.7508117-.00135995-24.2992102zm.0042232 0 20.5412711 11.9499781-.0013599 24.2992102-20.5399112 11.7508117z" fill="#ffae00" opacity=".196"/><path d="m15.8232279 19.1155258 8.9136176 2.3559623c4.8685387 1.2868056 8.6708968 5.0891637 9.9577025 9.9577024l2.3559623 8.9136177c.5645129 2.135795-.7092629 4.3248271-2.8450579 4.88934-.648505.1714067-1.3297024.1769753-1.980923.0161936l-8.8786281-2.19207c-5.0482051-1.2463658-8.9897712-5.1879319-10.2361371-10.236137l-2.1920699-8.8786282c-.5295206-2.1447384.7798721-4.3126537 2.9246106-4.8421744.6512206-.1607817 1.332418-.1552131 1.980923.0161936z" fill="#66bf3c" opacity=".5" transform="matrix(.70710678 -.70710678 .70710678 .70710678 -15.715401 26.391781)"/><path d="m15.8232279 11.2216893 8.9136176 2.3559623c4.8685387 1.2868056 8.6708968 5.0891637 9.9577025 9.9577025l2.3559623 8.9136176c.5645129 2.135795-.7092629 4.3248271-2.8450579 4.88934-.648505.1714067-1.3297024.1769753-1.980923.0161936l-8.8786281-2.19207c-5.0482051-1.2463658-8.9897712-5.1879319-10.2361371-10.236137l-2.1920699-8.8786282c-.5295206-2.1447384.7798721-4.3126537 2.9246106-4.8421744.6512206-.1607817 1.332418-.1552131 1.980923.0161936z" fill="#ffae00" opacity=".5" transform="matrix(.70710678 -.70710678 .70710678 .70710678 -10.133616 24.07973)"/><path d="m15.8232279 3.32785281 8.9136176 2.35596228c4.8685387 1.28680566 8.6708968 5.08916371 9.9577025 9.95770251l2.3559623 8.9136176c.5645129 2.135795-.7092629 4.3248271-2.8450579 4.88934-.648505.1714067-1.3297024.1769753-1.980923.0161936l-8.8786281-2.19207c-5.0482051-1.2463658-8.9897712-5.1879319-10.2361371-10.236137l-2.1920699-8.87862816c-.5295206-2.14473845.7798721-4.31265377 2.9246106-4.84217439.6512206-.16078172 1.332418-.1552131 1.980923.01619356z" fill="#fc521f" opacity=".5" transform="matrix(.70710678 -.70710678 .70710678 .70710678 -4.551831 21.767679)"/></g></svg>