<svg width="70" height="70" viewBox="0 0 70 70" xmlns="http://www.w3.org/2000/svg">
    <path d="M9.475 33.975a3.486 3.486 0 0 0 1.026-2.475v-14A3.5 3.5 0 0 1 14 14a3.5 3.5 0 1 0 0-7C8.21 7 3.5 11.711 3.5 17.5v12.551l-2.475 2.475a3.496 3.496 0 0 0 0 4.948l2.475 2.475v12.55C3.5 58.29 8.21 63 14 63a3.5 3.5 0 0 0 0-7 3.5 3.5 0 0 1-3.5-3.5V38.5a3.486 3.486 0 0 0-1.026-2.475L8.45 35l1.025-1.025zm60.26-.315a3.503 3.503 0 0 0-.76-1.134L66.5 30.05v-12.55C66.5 11.71 61.79 7 56 7a3.5 3.5 0 1 0 0 7 3.5 3.5 0 0 1 3.5 3.5V31.5a3.49 3.49 0 0 0 1.026 2.475L61.55 35l-1.025 1.025A3.486 3.486 0 0 0 59.5 38.5v14A3.5 3.5 0 0 1 56 56a3.5 3.5 0 1 0 0 7c5.79 0 10.5-4.711 10.5-10.5V39.949l2.475-2.475c1-1 1.3-2.506.76-3.814zM44.44 18.494a3.507 3.507 0 0 0-5.705 1.211l-13.986 28a3.496 3.496 0 0 0 1.96 4.546c1.797.71 3.83-.16 4.557-1.95l13.982-27.999a3.49 3.49 0 0 0-.805-3.808h-.003z" fill="#52525B" fill-rule="nonzero"/>
</svg>
