<svg height="180" viewBox="0 0 142 180" width="142" xmlns="http://www.w3.org/2000/svg"><g fill="none" fill-rule="evenodd"><circle cx="71" cy="70.954" fill="#e7e5e4" r="70.954"/><g fill-rule="nonzero" transform="translate(.046)"><path d="m103.983 47.553c10.657 0 19.327 7.58 19.327 16.896v54.316c0 .05-.11.203-.328.456l-.161.183c-.504.563-1.397 1.487-2.679 2.772l.125-.126a14.995 14.995 0 0 1 -.137-2.025v-55.58c0-7.562-7.243-13.716-16.148-13.716-8.27 0-15.097 5.31-16.029 12.128l23.508.001v3.179h-23.625v5.088h23.625v3.179h-23.625v5.473h23.625v3.178h-23.625v5.652l23.625.001v3.179h-23.625v5.473h23.681v24.356h-23.681v5.136h23.625v2.532c-.292.224-.576.44-.852.646h-22.773v3.814h16.387a1.289 1.289 0 0 1 -.24.012l-6.841 3.167h-9.306v43.077h-85.384v-117.359c.027-.509 1.115-15.088 20.925-15.088zm-11.27 3.176h-69.335c-17.01 0-17.726 11.501-17.748 11.991v114.098h79.03v-112.372c0-5.642 3.181-10.646 8.053-13.717z" fill="#292524"/><path d="m87.836 100.44h20.502v17.996h-20.502z" fill="#fff"/><path d="m50.441 63.445h-38.167v49.536h38.167z" fill="#292524"/><path d="m47.263 109.803h-31.813v-43.18h31.813z" fill="#047857"/><path d="m12.271 171.52h65.82v-24.9h-65.821z" fill="#292524"/><path d="m15.45 149.799h59.46v18.543h-59.46zm-1.59-11.389h37.75v3.18h-37.75zm0-10.066h62.64v3.178h-62.64zm0-9.905h62.64v3.178h-62.64zm41.74-8.636h20.901v3.178h-20.9v-3.178zm0-9.27h20.901v3.179h-20.9v-3.179zm0-9.405h20.901v3.178h-20.9v-3.178zm0-9.008h20.901v3.178h-20.9v-3.178zm0-9.667h20.901v3.178h-20.9v-3.178zm0-9.008h20.901v3.178h-20.9v-3.178zm-41.74-8.475h62.64v3.179h-62.64z" fill="#047857"/></g></g></svg>