<svg height="24" viewBox="0 0 24 24" width="24" xmlns="http://www.w3.org/2000/svg"><path d="m23.485 7.9c-.005-.03-.01-.058-.018-.086l-.016-.05a.795.795 0 0 1 -.074 0l-.022-.049a.853.853 0 0 0 -.036-.068l-.029-.047h-.062c-.011-.015-.022-.03-.035-.044l-.05-.055-.041-.04h-.048c-.016-.011-.03-.024-.047-.034-.006-.005-.01-.01-.017-.014l-10.785-7.413-11.973 7.229-.017.012-.046.035c.137.274.168.588.088.884-.015.02-.03.04-.043.062l-.03.048a.945.945 0 0 0 -.034.066l-.022.05a.742.742 0 0 1 .074 0l-.016.048c.043-.002.086-.002.13 0a.89.89 0 0 0 -.01.134v7.23c0 .044.003.089.01.133.002.016.006.028.01.044.004.028.009.057.018.086l.016.05c.008.025.016.05.026.074l.022.048a.457.457 0 0 0 .08.129c.01.016.022.03.034.045.017.019.032.037.051.054.013.014.026.03.042.039l.057.049c.016.012.032.022.045.034.006.004.01.01.016.013l10.84 7.232c.171.115.368.173.566.172a1.03 1.03 0 0 0 .565-.172l10.843-7.229.017-.012c.016-.01.03-.023.046-.034a.916.916 0 0 0 .058-.05l.041-.039c.015-.019.03-.04.043-.061l.03-.047a.98.98 0 0 0 .034-.068l.023-.049c.006-.017.012-.033.016-.05.003-.015.007-.029.007-.044a.874.874 0 0 0 .01-.133v-7.229c0-.044-.004-.089-.009-.133l-.01-.045h.001zm-11.845 6.203-3.605-2.412 3.605-2.411 3.606 2.412-3.606 2.412zm-1.019-6.595-4.42 2.957-3.568-2.387 7.988-5.325zm-6.254 4.183-2.55 1.705v-3.41zm1.834 1.227 4.42 2.956v4.756l-7.989-5.326 3.568-2.387v.001zm6.459 2.955 4.42-2.956 3.568 2.388-7.988 5.324zm6.253-4.181 2.55-1.707v3.412l-2.55-1.706zm-1.834-1.227-4.42-2.956v-4.756l7.989 5.325z"/></svg>