<svg width="44" height="44" viewBox="0 0 44 44" xmlns="http://www.w3.org/2000/svg">
    <path d="M22 .133c12.15 0 22 9.85 22 22 0 10.873-7.884 19.902-18.248 21.682l-.315.052V28.494h5.127l.974-6.361h-6.1v-4.127a4.623 4.623 0 0 1 .136-1.132c.072-.277.175-.542.314-.787a2.76 2.76 0 0 1 .68-.801c.318-.25.71-.448 1.192-.571a5.057 5.057 0 0 1 1.028-.142l.235-.004h2.775V9.154l-.39-.06-.626-.088-.695-.084-.313-.033-.33-.033-.52-.045-.36-.026-.37-.022-.375-.018-.38-.013a23.235 23.235 0 0 0-.19-.004l-.376-.004c-.76 0-1.48.07-2.154.207-.44.09-.861.208-1.262.354l-.227.087-.15.062-.202.09-.053.025c-1.625.76-2.851 2.039-3.562 3.79l-.09.23a8.038 8.038 0 0 0-.228.709l-.076.29-.045.191-.022.101a10.414 10.414 0 0 0-.176 1.144l-.019.2c-.02.233-.033.47-.04.713l-.004.368v4.848h-5.587v6.36h5.587v15.374C8.044 42.215 0 33.113 0 22.133c0-12.15 9.85-22 22-22z" fill="#1977F3" fill-rule="evenodd"/>
</svg>
