<svg height="70" viewBox="0 0 70 70" width="70" xmlns="http://www.w3.org/2000/svg"><path d="m36.551 1.586c.149 0 2.745 2.576 3.434 3.263l.167.166 1.886-.771c9.26-3.772 16.632-1.886 16.632 4.072 0 3.13-2.057 6.902-5.186 10.202 1.243 1.115 2.186 2.83 2.657 4.716.472 1.414.643 2.829.643 3.772.141 1.021.166 3.228.17 3.984l.002.162v.098l1.243.3c2.358.643 4.244 1.586 5.015 2.529.772.943 1.243 1.886 1.415 2.83.164.736.171 2.175-.798 3.684l-.145.216.643 1.415c.3.943.471 1.543.471 1.714 1.115 0 2.701 1.072 2.444 3.944 0 2.83-1.115 5.958-1.415 6.601-4.072 9.731-13.931 15.218-25.548 14.918-10.803-.343-20.062-5.958-24.134-15.39-2.53 0-5.016-1.114-6.902-2.828-1.843-1.886-3.129-4.244-3.429-6.602-.12-1.751-.017-3.355.513-4.845l.13-.342-2.186-1.886c-10.331-8.787 22.119-45.01 32.277-35.922zm13.89 19.804c-.944.172-1.416.643-2.059 1.115-1.886 1.543-3.6 1.715-5.315 1.715-.81 0-1.933-.243-3.056-.292l-.373-.008h-.772c-2.958-.13-6.258 2.357-6.73 6.13-.772 5.186 2.958 7.844 4.072 9.43.129.172.3.343.3.643 0 .257-.094.514-.229.69l-.07.082-.24.244c-2.98 3.142-3.847 8.01-2.761 12.144 0 .643.3 1.115.471 1.586 2.658 6.43 11.103 9.26 19.59 6.602 1.072-.3 2.186-.772 3.13-1.243 1.843-.944 3.6-2.187 4.843-3.601 2.015-2.358 3.43-4.716 3.901-7.845.129-1.586-.171-2.229-.643-2.529-.471-.343-1.114-.171-1.114-.171s-.343-2.058-1.115-3.773c-2.357 1.844-5.487 3.258-7.844 3.901-2.658.815-6.43 1.415-10.503 1.115-2.314-.3-3.729-.943-4.372.943 5.187 1.886 10.674 1.114 10.674 1.114.038.003.131.018.162.108l.01.064-.172.171s-4.244 2.058-11.274 0c.343 1.586 1.757 2.23 2.529 2.53.943.3 1.886.47 1.886.47 8.316 1.415 16.16-3.3 17.875-4.543.156-.117.312-.021.21.126l-.038.045-.172.3c-2.057 2.83-7.844 5.959-15.389 5.959-3.129 0-6.43-1.286-7.673-3-1.809-2.61-.19-6.58 2.829-6.28l.172.02 1.414.172c3.901.472 9.388 0 14.104-2.186 4.243-2.058 5.958-4.244 5.658-5.958-.129-.472-.3-.943-.772-1.415-.771-.772-2.014-1.243-4.072-1.886-.643-.172-1.114-.3-1.586-.472-.943-.3-1.243-.6-1.415-2.186 0-.643-.171-3.13-.171-4.244-.172-1.886-.3-4.2-1.886-5.315-.3-.3-.772-.472-1.243-.472-.472-.171-.6 0-.772 0zm-35.024 14.66c-.643 0-1.114 0-1.586.172-3.772.815-5.787 3.944-5.487 8.016.3 3.773 4.244 6.902 7.673 7.073.343.172.815 0 1.115 0 3.943-.643 4.844-4.715 4.244-9.002-.772-4.544-3.901-6.087-5.959-6.258zm-2.83 3.816a3.03 3.03 0 0 1 2.83-1.115c1.115.172 1.886.772 2.53 1.886.814 1.415.17 2.83-.3 3.773l-.172.3c-.172.643-.129 1.114 0 1.414.128.3.471.472.771.472h.472c.171-.172.3-.172.471 0 0 .171.129.171-.043.429 0 .3-.643.771-1.414.771-.772-.128-1.715-.771-1.886-2.186 0-.814.171-1.586.643-2.058.343-.943 0-1.886-.772-2.357-.471-.3-1.114-.472-1.586-.3-.471 0-.943.3-1.243.771-.3.472-.472.815-.472 1.115v.171c-.171.472-.471.643-.643.643-.128 0-.3-.128-.3-.3-.128-.6 0-2.186 1.115-3.43zm35.151-3.472c.343-.472.944-.6 1.587-.3.6.3.943.943.771 1.414-.343.472-.943.6-1.586.3s-1.114-.943-.772-1.414zm-37.335-16.804c-3 4.115-7.245 11.617-5.187 15.39.171.47 1.586 1.714 2.358 2.357 1.286-1.886 3.3-3.13 5.658-3.601 2.958-8.016 7.973-15.39 14.575-20.276 4.886-4.072 10.202-7.073 10.202-7.073s-2.83-3.3-3.772-3.6c-5.187-1.373-16.633 6.471-23.834 16.803zm42.009 14.789c.471 0 .814.6.943 1.243 0 .772-.472 1.243-.943 1.243-.643 0-.943-.6-.943-1.243 0-.771.471-1.243.943-1.243zm-10.802.6c1.243-.128 2.186.343 2.229.815v.3c-.129.171-.3 0-.772 0-.772-.172-1.586-.172-2.83.3 0 0-.47.171-.642.171h-.172v-.171c0-.172.172-.343.472-.643s.771-.6 1.715-.772zm-3.944-1.886c1.414-1.115 3.13-1.286 4.715-.643.6.3 1.415.772 1.715 1.415.171.343.343.471.171.643-.128.171-.6 0-1.243-.3s-1.586-.643-2.529-.6c-1.586.128-3 .771-3.3.771-.13 0-.3 0-.3-.171-.172-.343.3-.815.77-1.115zm15.089-2.958c.277.99.298 1.87.064 2.504l-.064.154h-1.415c-.471-.472-.814-1.243-.943-2.186-.3-1.586-.3-2.83.643-3 .943-.13 1.415.942 1.715 2.528zm-10.331-18.004c-2.7.129-5.83 1.415-7.544 2.658 0 0-.172 0-.172-.172.129-.643.6-1.414.772-1.886 0-.171 0-.171-.172-.171-2.829 1.414-6.087 4.072-8.616 7.073-.129.128 0 .128.214.171 2.187-1.543 5.187-3.129 9.26-4.072 4.543-1.115 8.787-.643 11.445 0 .171 0 .343-.3.171-.3-1.714-1.072-4.372-1.715-6.258-1.715-.172 0-.172-.171-.172-.171.472-.472.772-.943 1.243-1.243 0 0 0-.172-.171-.172z"/></svg>