<svg viewBox="0 0 29 11" width="29" xmlns="http://www.w3.org/2000/svg"><path d="m1.362 8.796c.47 0 .848.379.848.849a.844.844 0 0 1 -.848.835c-.47 0-.862-.379-.862-.835 0-.47.392-.849.862-.849zm2.927-8.276v3.864h.104c.287-.561.992-1.057 1.971-1.057 1.54 0 2.533 1.148 2.533 2.61v4.373h-1.293v-4.15c0-.967-.73-1.62-1.605-1.62-.927 0-1.71.705-1.71 1.671v4.1h-1.292v-9.791zm7.34 1.031v1.945h2.01v1.123h-2.01v3.681c0 .614.247.875.848.875h1.083v1.135h-1.096c-1.28 0-2.128-.587-2.128-1.997v-3.693h-1.24v-1.124h1.318v-1.945h1.214zm9.988 1.776c1.489 0 2.48 1.07 2.48 2.506v4.477h-1.292v-4.046c0-1.136-.587-1.723-1.462-1.723-.848 0-1.566.613-1.566 1.736v4.033h-1.292v-4.23c0-.965-.653-1.54-1.502-1.54-.835 0-1.553.68-1.553 1.698v4.072h-1.292l-.001-6.814h1.292v.875h.104c.3-.548.914-1.044 1.867-1.044.98 0 1.671.47 2.037 1.174h.104c.418-.77 1.136-1.174 2.075-1.174zm5.565-2.807v8.668h1.318v1.122h-3.942v-1.122h1.331v-7.532h-1.331v-1.136z" fill="#181918" fill-rule="evenodd" opacity=".5"/></svg>