<svg height="70" viewBox="0 0 70 70" width="70" xmlns="http://www.w3.org/2000/svg"><path d="m36.277 68.993c-8.319 0-15.925-3.04-21.805-8.068l-14.472 1.977 5.59-13.8a34.072 34.072 0 0 1 -3.04-14.102c0-18.773 15.1-33.993 33.727-33.993 18.625 0 33.723 15.22 33.723 33.993 0 18.776-15.098 33.993-33.723 33.993zm18.415-34.09v-.095c0-9.809-6.918-16.803-18.845-16.803h-12.882v33.992h12.691c12.02 0 19.036-7.286 19.036-17.094zm-18.703 8.743h-3.768v-17.287h3.768c5.534 0 9.207 3.155 9.207 8.596v.095c0 5.487-3.673 8.596-9.207 8.596z" fill="#2e9fff"/></svg>