<svg height="70" viewBox="0 0 70 70" width="70" xmlns="http://www.w3.org/2000/svg"><g fill="none"><path d="m14.757 44.252a7.347 7.347 0 0 1 -7.35 7.356 7.347 7.347 0 0 1 -7.351-7.356 7.347 7.347 0 0 1 7.35-7.357h7.351zm3.676 0a7.347 7.347 0 0 1 7.35-7.357 7.347 7.347 0 0 1 7.351 7.357v18.391a7.347 7.347 0 0 1 -7.35 7.357 7.347 7.347 0 0 1 -7.351-7.357z" fill="#e01e5a"/><path d="m25.784 14.713a7.347 7.347 0 0 1 -7.351-7.356 7.347 7.347 0 0 1 7.35-7.357 7.347 7.347 0 0 1 7.351 7.357v7.356zm0 3.734a7.347 7.347 0 0 1 7.35 7.357 7.347 7.347 0 0 1 -7.35 7.357h-18.434a7.347 7.347 0 0 1 -7.35-7.357 7.347 7.347 0 0 1 7.35-7.357z" fill="#36c5f0"/><path d="m55.243 25.804a7.347 7.347 0 0 1 7.35-7.357 7.347 7.347 0 0 1 7.351 7.357 7.347 7.347 0 0 1 -7.35 7.357h-7.351zm-3.676 0a7.347 7.347 0 0 1 -7.35 7.357 7.347 7.347 0 0 1 -7.351-7.357v-18.447a7.347 7.347 0 0 1 7.35-7.357 7.347 7.347 0 0 1 7.351 7.357z" fill="#2eb67d"/><path d="m44.216 55.287a7.347 7.347 0 0 1 7.351 7.356 7.347 7.347 0 0 1 -7.35 7.357 7.347 7.347 0 0 1 -7.351-7.357v-7.356zm0-3.679a7.347 7.347 0 0 1 -7.35-7.356 7.347 7.347 0 0 1 7.35-7.357h18.434a7.347 7.347 0 0 1 7.35 7.357 7.347 7.347 0 0 1 -7.35 7.356h-18.435z" fill="#ecb22e"/></g></svg>