<svg height="24" viewBox="0 0 24 24" width="24" xmlns="http://www.w3.org/2000/svg"><path d="m23.744 4.636a9.74 9.74 0 0 1 -2.798.767 4.886 4.886 0 0 0 2.142-2.695 9.756 9.756 0 0 1 -3.093 1.182 4.872 4.872 0 0 0 -8.301 4.443 13.83 13.83 0 0 1 -10.041-5.09c-.42.72-.66 1.557-.66 2.45 0 1.69.86 3.18 2.168 4.054a4.852 4.852 0 0 1 -2.207-.609v.061c0 2.36 1.679 4.33 3.907 4.777a4.878 4.878 0 0 1 -2.2.083 4.876 4.876 0 0 0 4.55 3.383 9.774 9.774 0 0 1 -6.049 2.086 9.91 9.91 0 0 1 -1.162-.068 13.788 13.788 0 0 0 7.467 2.188c8.96 0 13.86-7.423 13.86-13.86 0-.211-.005-.421-.014-.63a9.9 9.9 0 0 0 2.43-2.522" fill="#55acee"/></svg>