<svg width="70" height="70" viewBox="0 0 70 70" xmlns="http://www.w3.org/2000/svg">
    <path d="M43.75 35.015a20.932 20.932 0 0 1-1.344 7.39 20.985 20.985 0 0 1-7.392 1.346h-.03c-2.6-.003-5.09-.479-7.389-1.345a20.934 20.934 0 0 1-1.345-7.39v-.031a20.945 20.945 0 0 1 1.343-7.389 20.916 20.916 0 0 1 7.392-1.346h.03c2.524-.001 5.029.455 7.391 1.346a20.92 20.92 0 0 1 1.344 7.388v.031zm25.764-5.848h-20.43L63.529 14.72a35.142 35.142 0 0 0-3.781-4.47v-.001a35.273 35.273 0 0 0-4.47-3.778L40.833 20.917V.487A35.166 35.166 0 0 0 35.017 0h-.036C33 .001 31.058.17 29.167.487v20.43L14.72 6.471a34.95 34.95 0 0 0-4.467 3.78l-.008.006A35.22 35.22 0 0 0 6.47 14.72l14.447 14.447H.487S0 33.004 0 34.988v.024c0 1.984.168 3.929.487 5.821h20.43L6.47 55.28a35.249 35.249 0 0 0 8.25 8.25l14.447-14.447v20.43c1.919.322 3.862.485 5.808.487h.05a35.314 35.314 0 0 0 5.807-.486V49.083L55.28 63.53a35.272 35.272 0 0 0 4.468-3.779l.003-.003a35.34 35.34 0 0 0 3.778-4.468L49.081 40.833h20.433c.318-1.89.484-3.828.486-5.808v-.05a35.194 35.194 0 0 0-.486-5.808z" fill="#FF4A00" fill-rule="nonzero"/>
</svg>
