<svg height="70" viewBox="0 0 70 70" width="70" xmlns="http://www.w3.org/2000/svg"><g fill="none" fill-rule="evenodd"><path d="m44.243 21.01c3.166-5.42 1.286-12.346-4.2-15.477-5.486-3.126-12.5-1.273-15.667 4.147-.14.243-.27.49-.394.742l-10.706 18.314c-.237.364-.456.74-.657 1.125l-11.116 19.184 19.865 11.134 11.06-19.022c.242-.361.461-.737.657-1.124l10.706-18.316c.155-.23.31-.463.452-.706" fill="#fbbc04"/><path d="m21.46 60.121c-3.148 5.508-10.25 7.534-15.704 4.356-5.457-3.18-7.393-10.075-4.242-15.58 3.15-5.506 10.19-7.542 15.646-4.364 5.456 3.18 7.449 10.082 4.3 15.586" fill="#34a853"/><path d="m64.329 24.636c-5.423-3.125-12.352-1.274-15.494 4.138l-11.342 19.598c-3.124 5.402-1.279 12.314 4.123 15.438l.03.017c5.423 3.126 12.353 1.275 15.495-4.14l11.339-19.597c3.124-5.403 1.276-12.316-4.127-15.44a6.866 6.866 0 0 0 -.025-.015" fill="#4285f4"/></g></svg>