<svg viewBox="0 0 64 64" xmlns="http://www.w3.org/2000/svg"><path d="m50.6666667 0h-37.3333334c-7.36266663 0-13.3333333 5.97066667-13.3333333 13.3333333v37.3333334c0 7.3626666 5.97066667 13.3333333 13.3333333 13.3333333h37.3333334c7.3653333 0 13.3333333-5.9706667 13.3333333-13.3333333v-37.3333334c0-7.36266663-5.968-13.3333333-13.3333333-13.3333333zm-29.3333334 50.6666667h-8v-29.3333334h8zm-4-32.7146667c-2.576 0-4.6666666-2.1066667-4.6666666-4.704s2.0906666-4.704 4.6666666-4.704 4.6666667 2.1066667 4.6666667 4.704-2.088 4.704-4.6666667 4.704zm36 32.7146667h-8v-14.944c0-8.9813334-10.6666666-8.3013334-10.6666666 0v14.944h-8v-29.3333334h8v4.7066667c3.7226666-6.896 18.6666666-7.4053333 18.6666666 6.6026667z" fill="#0077b7"/></svg>