<svg width="44" height="44" viewBox="0 0 44 44" xmlns="http://www.w3.org/2000/svg">
    <g fill-rule="nonzero" fill="none">
        <circle fill="#4353FF" cx="22" cy="22" r="22"/>
        <path d="m28.462 19.387-1.993 6.284c0-.481-1.375-10.903-1.375-10.903-3.163 0-4.84 2.24-5.72 4.62l-2.434 6.297c0-.454-.344-6.242-.344-6.242a5.143 5.143 0 0 0-4.991-4.662l2.585 15.785c3.3 0 5.088-2.241 6.009-4.62l2.062-5.362c0 .22 1.375 9.982 1.375 9.982a6.352 6.352 0 0 0 6.05-4.441l4.675-11.357c-3.3 0-5.032 2.24-5.912 4.62h.013z" fill="#FFF"/>
    </g>
</svg>
