<svg height="24" viewBox="0 0 24 24" width="24" xmlns="http://www.w3.org/2000/svg"><path d="m22.125 0c1.036 0 1.875.84 1.875 1.875v20.25c0 1.036-.84 1.875-1.875 1.875h-20.25a1.875 1.875 0 0 1 -1.875-1.875v-20.25c0-1.036.84-1.875 1.875-1.875zm-8.917 8.572c1.849-1.151 2.848.431 1.953 2.259l-.103.2-.13.245-.19.351-.127.223-.124.214-.122.204-.12.195-.117.184-.115.174a10.32 10.32 0 0 1 -.057.082l-.11.158-.109.145a5.236 5.236 0 0 1 -.255.313l-.096.104c-.22.227-.407.35-.553.35-.15 0-.287-.133-.423-.386l-.055-.108a3.126 3.126 0 0 1 -.027-.058l-.054-.127-.055-.14a6.36 6.36 0 0 1 -.027-.074l-.056-.158-.055-.17-.056-.182-.058-.194-.087-.313-.06-.223-.092-.356-.16-.648-.068-.278a15.818 15.818 0 0 1 -.208-1.063l-.076-.462-.076-.474-.05-.306-.09-.503-.057-.295-.062-.29-.044-.19a10.618 10.618 0 0 0 -.023-.093l-.048-.184-.051-.179a6.494 6.494 0 0 0 -.112-.342l-.061-.162c-.358-.9-.903-1.476-1.831-1.287-.856.174-1.82.839-2.665 1.57l-.209.185-.203.185-.1.093-.192.184-.186.183-.09.09-.172.176-.163.17-.225.24-.258.286-.206.235-.197.233-.048.058.666.907.11-.085.102-.075.13-.09.098-.064a4.85 4.85 0 0 1 .052-.033l.11-.065.056-.033.116-.062c.394-.202.835-.33 1.059-.055a.83.83 0 0 1 .089.152l.042.091.045.107.074.19.053.144.114.327.124.374.166.524.25.815.415 1.396.5 1.692.213.706.161.523.114.361.108.33.068.2.094.266.058.153.053.133.025.059.024.052.056.115.062.116c.022.04.044.079.068.118l.074.118c.115.177.25.353.4.518l.102.108c.683.688 1.658 1.116 2.694.42l.11-.077.122-.087.13-.097.141-.107.227-.18.162-.132.257-.217.18-.156.185-.165.191-.174.197-.183.2-.191.205-.2.209-.208.21-.216.214-.224.216-.232.216-.239a24.3 24.3 0 0 0 .217-.246l.218-.253.217-.26.108-.133.215-.27c1.465-1.869 2.805-4.186 3.232-6.682.917-5.355-6.163-4.233-6.913.432z" fill="#4bf"/></svg>