<svg width="44" height="44" viewBox="0 0 44 44" xmlns="http://www.w3.org/2000/svg">
    <g fill-rule="nonzero" fill="none">
        <path d="M36.594 8.472a.427.427 0 0 0-.386-.358c-.16-.014-3.292-.061-3.292-.061s-2.62-2.544-2.879-2.803c-.259-.259-.764-.18-.96-.122l-1.316.407a9.226 9.226 0 0 0-.63-1.547c-.933-1.78-2.299-2.721-3.95-2.724h-.005c-.115 0-.229.011-.343.021a5.046 5.046 0 0 0-.15-.172c-.718-.77-1.64-1.144-2.745-1.111-2.131.061-4.254 1.6-5.975 4.335-1.211 1.924-2.133 4.34-2.394 6.212l-4.197 1.3c-1.235.388-1.274.426-1.435 1.59-.12.88-3.352 25.876-3.352 25.876L29.673 44l11.741-2.919s-4.79-32.386-4.82-32.609zm-10.19-2.517-2.102.651c-.016-1.08-.144-2.58-.647-3.878 1.618.306 2.414 2.136 2.75 3.227zm-3.519 1.09-4.523 1.4c.437-1.673 1.266-3.34 2.284-4.432.379-.406.908-.86 1.536-1.118.59 1.23.718 2.973.703 4.15zM19.981 1.42c.5-.01.922.1 1.282.336-.576.3-1.133.729-1.656 1.29-1.353 1.452-2.391 3.707-2.805 5.882l-3.714 1.15c.733-3.424 3.603-8.562 6.893-8.658z" fill="#95BF47"/>
        <path d="M36.209 8.115c-.16-.014-3.292-.061-3.292-.061s-2.62-2.544-2.879-2.803a.64.64 0 0 0-.363-.167v38.915l11.74-2.918s-4.79-32.385-4.82-32.607a.428.428 0 0 0-.386-.36z" fill="#5E8E3E"/>
        <path d="m23.167 14.151-1.364 5.102s-1.52-.693-3.324-.579c-2.644.167-2.672 1.835-2.645 2.253.144 2.282 6.146 2.78 6.483 8.124.265 4.204-2.23 7.08-5.825 7.307-4.315.273-6.69-2.273-6.69-2.273l.914-3.889S13.107 32 15.02 31.88c1.25-.08 1.697-1.097 1.652-1.816-.188-2.976-5.076-2.8-5.385-7.69-.26-4.115 2.443-8.285 8.406-8.661 2.297-.148 3.473.438 3.473.438z" fill="#FFF"/>
    </g>
</svg>
