<svg height="24" viewBox="0 0 24 24" width="24" xmlns="http://www.w3.org/2000/svg"><path d="m12 0c-6.627 0-12 5.373-12 12s5.373 12 12 12c6.628 0 12-5.373 12-12s-5.372-12-12-12zm5.503 17.307a.748.748 0 0 1 -1.029.248c-2.817-1.72-6.364-2.11-10.541-1.156a.748.748 0 0 1 -.333-1.46c4.571-1.044 8.492-.594 11.655 1.34a.748.748 0 0 1 .248 1.028zm1.469-3.268a.935.935 0 0 1 -1.287.31c-3.226-1.984-8.142-2.558-11.958-1.4a.937.937 0 0 1 -1.167-.623.937.937 0 0 1 .624-1.167c4.358-1.323 9.776-.682 13.48 1.594.44.271.579.847.308 1.286zm.126-3.402c-3.868-2.297-10.249-2.508-13.941-1.388a1.122 1.122 0 1 1 -.652-2.148c4.24-1.287 11.286-1.038 15.738 1.605a1.121 1.121 0 1 1 -1.145 1.93z" fill="#1ed760"/></svg>