<svg height="24" viewBox="0 0 24 24" width="24" xmlns="http://www.w3.org/2000/svg" xmlns:xlink="http://www.w3.org/1999/xlink"><defs><radialGradient id="a" cx="26.563%" cy="107.702%" r="99.107%"><stop offset="0" stop-color="#fd5"/><stop offset=".1" stop-color="#fd5"/><stop offset=".5" stop-color="#ff543e"/><stop offset="1" stop-color="#c837ab"/></radialGradient><radialGradient id="b" cx="-16.751%" cy="7.204%" r="44.301%"><stop offset="0" stop-color="#3771c8"/><stop offset=".128" stop-color="#3771c8"/><stop offset="1" stop-color="#60f" stop-opacity="0"/></radialGradient><path id="c" d="m11.115 0h4.794l1.614.007.668.01.371.01.277.014.24.02.105.012.266.037c1.157.167 2.128.629 2.922 1.387.445.428.751.847 1.027 1.408.317.644.482 1.256.563 2.13l.016.193.008.472.008 1.544.006 3.688-.008 6.472-.012 1.314-.003.07c-.075.95-.24 1.603-.566 2.275a5.025 5.025 0 0 1 -3.276 2.682c-.424.11-.815.172-1.382.212l-.275.017-.24.01-1.755.012-3.15.004-6.27-.009-1.38-.011-.063-.002c-.701-.033-1.248-.103-1.742-.23a5.056 5.056 0 0 1 -3.278-2.678c-.314-.65-.471-1.248-.558-2.155l-.015-.178-.01-.24-.015-1.885-.002-1.91v-7.03l.007-1.254.015-.853.009-.241.011-.194.025-.274.042-.304c.167-1.156.628-2.129 1.39-2.92a4.79 4.79 0 0 1 1.379-1.008c.658-.328 1.265-.49 2.197-.58l.214-.017.503-.013 1.705-.01 1.042-.002zm3.17 3.148-.863-.007h-2.915l-.9.009-.58.014-.683.028c-.943.044-1.587.193-2.15.412a4.339 4.339 0 0 0 -1.57 1.022 4.35 4.35 0 0 0 -1.023 1.57c-.22.563-.369 1.208-.411 2.15l-.024.564-.011.344-.009.424-.009 1.362.002 2.42.008.941.018.66.025.593c.043.944.193 1.588.412 2.151.226.583.529 1.078 1.021 1.57.493.493.987.797 1.57 1.023.53.207 1.132.351 1.987.403l.73.033.555.016.828.01 1.133.003 2.06-.002.901-.008.579-.015.683-.028c.944-.043 1.588-.193 2.152-.412a4.335 4.335 0 0 0 1.568-1.023 4.35 4.35 0 0 0 1.023-1.57c.218-.563.367-1.207.412-2.15l.033-.865.013-.63.007-1.295-.002-2.24-.01-1.087-.015-.566-.026-.625c-.045-.944-.194-1.588-.412-2.151a4.35 4.35 0 0 0 -1.023-1.57 4.33 4.33 0 0 0 -1.569-1.022c-.564-.22-1.209-.368-2.152-.412l-.44-.019-.481-.016-.443-.009zm-3.082 1.586v.002l2.165.002 1.033.009.526.013.651.027c.562.025.956.095 1.25.175l.128.037.115.037.104.038.048.018c.414.16.708.353 1.018.663s.503.605.663 1.019l.037.099.038.109.019.06.037.128c.073.27.138.627.168 1.122l.023.497.021.67.01.82.004 1.16-.002 2.067-.012 1.063-.013.427-.024.583a6.33 6.33 0 0 1 -.122 1.03l-.035.15a3.99 3.99 0 0 1 -.018.07l-.037.128-.038.115a3.841 3.841 0 0 1 -.019.054l-.037.098a2.74 2.74 0 0 1 -.663 1.018 2.74 2.74 0 0 1 -1.018.663l-.098.037-.11.038-.059.019-.128.037c-.271.073-.628.138-1.123.168l-.741.032-.486.014-.712.008-1.208.004-2.068-.002-1.063-.012-.426-.013-.584-.024a5.774 5.774 0 0 1 -1.25-.176l-.128-.037-.115-.037a3.866 3.866 0 0 1 -.053-.02l-.099-.036a2.744 2.744 0 0 1 -1.019-.663 2.747 2.747 0 0 1 -.663-1.018l-.037-.1-.038-.108a3.726 3.726 0 0 1 -.018-.06l-.037-.128a3.99 3.99 0 0 1 -.019-.07l-.034-.15a6.08 6.08 0 0 1 -.116-.903l-.027-.61-.017-.556-.008-.644-.005-1.337.002-2.088.011-1.015.013-.455.019-.453.006-.13a6.13 6.13 0 0 1 .139-1.107l.036-.143.037-.128.037-.116.038-.104.018-.048c.16-.413.353-.709.663-1.019a2.75 2.75 0 0 1 1.019-.663l.099-.037.11-.038.12-.037a3.84 3.84 0 0 1 .067-.019l.143-.035c.25-.058.567-.108.98-.133l.596-.027.48-.015.726-.01zm.794 2.716a4.55 4.55 0 1 0 .003 9.102 4.55 4.55 0 0 0 -.002-9.102zm0 1.597a2.954 2.954 0 1 1 0 5.908 2.954 2.954 0 0 1 0-5.908zm4.73-2.84a1.064 1.064 0 1 0 .001 2.128 1.064 1.064 0 0 0 0-2.128z"/></defs><g fill="none"><use fill="url(#a)" xlink:href="#c"/><use fill="url(#b)" xlink:href="#c"/></g></svg>