<svg width="24" height="24" viewBox="0 0 24 24" xmlns="http://www.w3.org/2000/svg">
    <defs>
        <linearGradient x1="49.995%" y1="-.014%" x2="49.995%" y2="99.986%" id="0r2ku518ca">
            <stop stop-color="#F79810" offset="0%"/>
            <stop stop-color="#F8310E" offset="100%"/>
        </linearGradient>
    </defs>
    <path d="M.272 13.019c-.05 0-.09.038-.096.093L0 14.441l.176 1.305c.006.055.046.094.096.094.048 0 .088-.038.096-.093l.208-1.306-.208-1.329C.36 13.057.32 13.02.272 13.02zm.987-.726c-.008-.057-.05-.097-.1-.097-.051 0-.093.041-.1.097L.823 14.44l.236 2.1c.007.057.049.097.1.097.05 0 .091-.04.1-.096l.268-2.101-.268-2.148zm3.718-1.981a.185.185 0 0 0-.182.179l-.188 3.952.188 2.553c.005.1.085.179.182.179a.186.186 0 0 0 .181-.18v.002l.213-2.554-.213-3.952a.186.186 0 0 0-.181-.18zm-1.925 1.373a.144.144 0 0 0-.14.138L2.7 14.442l.211 2.533a.144.144 0 0 0 .141.137c.074 0 .135-.059.141-.137l.24-2.533-.24-2.62a.145.145 0 0 0-.14-.137zm3.88 5.49c.12 0 .218-.097.222-.22l.185-2.511-.184-5.261a.225.225 0 0 0-.223-.22.224.224 0 0 0-.223.22l-.163 5.26.163 2.513c.004.122.102.219.223.219zm4.003.012a.308.308 0 0 0 .305-.303v.002-.002l.128-2.439-.128-6.076a.308.308 0 0 0-.305-.302.307.307 0 0 0-.304.302l-.115 6.074.115 2.443c.002.165.139.3.304.3zm-2.017-.01c.144 0 .26-.115.264-.262v.002l.156-2.473-.156-5.299a.264.264 0 0 0-.527 0l-.14 5.3.14 2.472c.003.145.119.26.263.26zm-4.907-.023a.164.164 0 0 0 .16-.158l.227-2.554-.226-2.43a.164.164 0 0 0-.161-.158.163.163 0 0 0-.162.159l-.2 2.429.2 2.554c.006.09.075.158.162.158zm-1.91-.14c.063 0 .114-.05.121-.117l.255-2.456-.255-2.548c-.007-.069-.058-.118-.12-.118-.063 0-.114.05-.12.118l-.225 2.548.224 2.455c.007.069.057.118.12.118zm7.822-7.957a.284.284 0 0 0-.285.282l-.127 5.106.127 2.457a.284.284 0 0 0 .569-.002v.002l.142-2.457-.142-5.106a.284.284 0 0 0-.284-.282zM5.95 17.18a.206.206 0 0 0 .202-.2l.198-2.537-.198-4.855a.206.206 0 0 0-.202-.2.205.205 0 0 0-.203.2l-.175 4.855.176 2.538c.004.111.093.199.202.199zm2.213-.24.17-2.496-.17-5.438a.245.245 0 0 0-.243-.241.244.244 0 0 0-.243.24l-.151 5.439.151 2.496c.004.134.11.24.243.24a.245.245 0 0 0 .243-.24zm12.884-5.63c-.404 0-.79.08-1.142.228a5.202 5.202 0 0 0-5.187-4.731c-.666 0-1.315.13-1.888.351-.223.086-.282.175-.284.346v9.337c.002.18.142.33.318.348l8.183.004A2.947 2.947 0 0 0 24 14.251a2.947 2.947 0 0 0-2.952-2.942zm-9.105-3.814a.328.328 0 0 0-.325.323l-.134 6.627.134 2.405c.002.176.148.32.325.32a.328.328 0 0 0 .325-.322v.003l.145-2.406-.145-6.627a.328.328 0 0 0-.325-.323z" fill="url(#0r2ku518ca)" fill-rule="nonzero"/>
</svg>
