<svg viewBox="0 0 39 30" xmlns="http://www.w3.org/2000/svg" xmlns:xlink="http://www.w3.org/1999/xlink"><defs><radialGradient id="a" cx="26.562627%" cy="107.702106%" r="99.107386%"><stop offset="0" stop-color="#fd5"/><stop offset=".1" stop-color="#fd5"/><stop offset=".5" stop-color="#ff543e"/><stop offset="1" stop-color="#c837ab"/></radialGradient><radialGradient id="b" cx="-16.750527%" cy="7.203832%" r="44.301409%"><stop offset="0" stop-color="#3771c8"/><stop offset=".128" stop-color="#3771c8"/><stop offset="1" stop-color="#60f" stop-opacity="0"/></radialGradient><path id="c" d="m7.4102309 0h3.1959373l1.0758285.00481246.4452528.00626875.247522.00700295.1842318.00913894.1601643.01338163.0700288.00806846.1775794.0246877c.7713632.11127223 1.4186781.41899409 1.947975.92464265.2965835.2854428.5008692.56460807.6848494.93842859.2110325.42979693.3210114.83778714.3752855 1.4199746l.0104811.12884864.0050346.3147846.0055376 1.02938051.004061 2.4587706-.0055504 4.31475802-.0077696.8758686-.0018905.0469391c-.0498408.6323069-.1599827 1.068041-.3771901 1.5160841-.4319536.8911625-1.2257143 1.541071-2.1843804 1.7884794-.2824696.073007-.5430041.1145673-.9212114.1412523l-.1834211.0113202-.1594603.0068131-1.1707758.0074994-2.10016579.0027947-4.17913095-.0058155-.92032434-.0075245-.04200769-.0012479c-.46764199-.0221559-.83191049-.0689297-1.16172116-.1538609-.95251291-.2461775-1.7610413-.9059332-2.18438037-1.7847868-.20920826-.4336143-.31413524-.8320951-.37180024-1.4370461l-.01041984-.1181655-.00632427-.1597695-.01003646-1.2568059-.00203929-1.27378569v-4.68664035l.00454105-.8356441.00998807-.56910131.00607556-.16071729.0073642-.1292093.01685728-.18242266.02770616-.20258062c.11137264-.77078172.41903184-1.41921322.92666953-1.94627923.27873924-.28901237.5611704-.49518601.91928571-.67304925.43887244-.2185509.84371625-.32698031 1.46479431-.38636314l.14301666-.01206663.33516139-.00828362 1.13635977-.00653895.69452902-.00125871zm2.11253455 2.09873079-.5746731-.00475218-1.94322697.00018533-.60033032.00561399-.38592249.00953761-.45584018.01888885c-.62885542.02880277-1.05810154.12838156-1.4336919.2744879-.38851204.1509068-.71807659.35277234-1.04641049.6812962-.32858003.32840077-.53040447.65803243-.6817728 1.0465005-.14644578.37578994-.24612737.80524657-.27443201 1.43398387l-.01579813.37522728-.00732162.22959318-.00578118.2829705-.00610577.90772081.00101694 1.61289322.00583851.62778077.01156378.44024498.01671053.3954218c.02891996.6289834.12847848 1.058317.27443201 1.4339838.15099914.3885912.35282358.7182229.68128055 1.0466236.32821084.328647.65777538.5310049 1.0460413.6819117.35372846.1375118.75487689.233809 1.32502509.2686753l.48604296.0219026.37082321.0106214.55196088.0065656.75530516.0022572 1.37376537-.0014938.60015485-.005614.38574409-.0095376.45573088-.0188888c.6288554-.0288028 1.0585938-.1283816 1.4344302-.2744879.388389-.1509068.7174613-.3532647 1.0456722-.6819117.32858-.3284007.5304044-.6580324.6817728-1.0465005.1452151-.3757899.2448967-.8052465.274432-1.4339838l.0224354-.57618759.0080468-.41964371.0047722-.8638917-.0009456-1.49367155-.0068647-.7241992-.0100803-.37772475-.0173638-.41653405c-.0295353-.62898348-.1292169-1.05831702-.274432-1.43398387-.1513684-.38859116-.3531928-.71822282-.6817728-1.04662359-.3285801-.32864695-.6571601-.53051249-1.0460413-.6812962-.3765749-.14610634-.8060672-.24568513-1.4349226-.2744879l-.2934584-.01283424-.32080098-.0108026zm-2.05422887 1.05701844v.00147706l1.44377253.00118894.68843953.00601187.35073198.00883449.43391138.0179372c.3743597.01712164.6374514.06378212.83294.11655579l.0855842.02470585.0769379.02506219.0692453.02490673c.0109529.00410973.0216249.00819166.0320361.01223513.2756627.10708721.4721954.2350995.6788193.44188859.206747.20678909.3347332.40373108.4420447.67944987l.0246354.06570354.0250519.07293378c.0041814.01281107.0083588.0259631.0125214.03947594l.0247129.08556545c.0487288.18042533.0922476.41852265.1120554.74858943l.0153191.33124423.0143246.44586249.0068489.5477407.002269.77278849-.0014958 1.37812057-.0080413.70855211-.0083387.28442169-.0164385.38910384c-.0131678.2880276-.0438107.5102028-.0812682.6863736l-.0232069.1003407c-.0039757.0158563-.0079983.0312922-.012057.0463277l-.0247008.0855654-.0250571.0769062c-.0041774.012149-.0083484.0239769-.0125022.0355035l-.0246321.0657036c-.1070654.2757188-.2352977.4720453-.4420447.6787113-.206747.2067891-.4030336.3348014-.6788193.4418886l-.065697.0247303-.0729377.0251098c-.0128124.0041885-.025966.0083716-.0394807.012539l-.0855789.0247293c-.1804558.0487406-.4185985.0921592-.7486121.1120173l-.4940556.0216419-.32392131.0088663-.47442937.0057925-.80536972.0024836-1.37851521-.001496-.70862945-.008043-.28438428-.0083404-.38901855-.0164418c-.37435972-.0172817-.63745141-.0639982-.83297378-.1167914l-.08560239-.0247126-.07696147-.0250652c-.01215988-.0041786-.0239995-.0083506-.03553875-.0125054l-.06579021-.0246373c-.27566265-.1070872-.47256454-.2350995-.67931153-.4418886s-.33473322-.4032387-.44204475-.6790806l-.02463538-.0657035-.02505182-.0729338c-.00418146-.0128111-.00835886-.0259631-.01252149-.0394759l-.02471291-.0855655c-.00406073-.0150354-.00808528-.0304714-.01206295-.0463277l-.02321768-.1003407c-.03372561-.1585537-.06191888-.3543709-.07677476-.601921l-.01833572-.4071394-.01111906-.37004128-.00583433-.42987199-.00299026-.89133734.00147682-1.39175628.00734777-.67632232.0086373-.30337034.012459-.30233298.00391121-.08664688c.01448459-.31683043.05011399-.55397936.09269921-.73790552l.02383285-.09520409.02470082-.0856017.02505709-.07695348.02490166-.06925946c.00410889-.01095508.00818999-.02162933.01223263-.03204264.10706541-.27571879.23529776-.47266078.44204475-.67944987s.40364888-.33480138.67931153-.44213477l.06576031-.02473038.07298168-.02511071.08115558-.02498517c.01426-.00412563.02890028-.00822495.04394066-.01228741l.09520237-.02384829c.16720201-.03872911.3783839-.07166535.6533897-.08826925l.39783357-.0179261.31983975-.0100692.48396847-.0070148zm.52978915 1.8108816c-1.67514284 0-3.03339671 1.35853047-3.03339671 3.03413755s1.35825387 3.03352212 3.03351978 3.03352212 3.0330275-1.35791504 3.0330275-3.03352212-1.35788466-3.03413755-3.03315057-3.03413755zm.00012307 1.06471764c1.0873907 0 1.96901892.88168468 1.96901892 1.96941991 0 1.08761215-.88162822 1.96941991-1.96901892 1.96941991-1.08751377 0-1.96901892-.88180776-1.96901892-1.96941991 0-1.08773523.88150515-1.96941991 1.96901892-1.96941991zm3.1531377-1.89335106c-.3913425.00024617-.7088468.31744587-.7088468.70899116 0 .39142221.3175043.70899117.7088468.70899117s.7088468-.31756896.7088468-.70899117c0-.3914222-.3175043-.70899116-.7088468-.70899116z"/></defs><g fill="none" transform="translate(.232353 .25)"><path d="m7.99995224 0c-4.41815783 0-7.99995224 3.58169888-7.99995224 7.99985671 0 4.41834889 3.58179441 7.99976119 7.99995224 7.99976119 4.41863546 0 8.00004776-3.5814123 8.00004776-7.99976119 0-4.41787124-3.5814123-7.99947459-8.00014329-7.99947459zm3.66872656 11.5380895c-.1432947.2350033-.4509007.3095166-.685904.1652666-1.87830699-1.1473129-4.24286066-1.407154-7.02755439-.7709255-.26834322.0611391-.53582667-.1069934-.59696574-.3754321-.06142566-.2684388.10603808-.5359222.37505-.59706131 3.0474007-.69650779 5.66138268-.39644868 7.77010753.89224831.2350033.14425.3095166.4509007.1652666.685904zm.9791804-2.17855712c-.1805513.29375414-.5645811.38641805-.8578576.20586673-2.15037584-1.32203694-5.42828994-1.70482486-7.97177093-.93275299-.32986441.09963758-.6782616-.08626342-.77837683-.41555464-.099351-.32986441.08664553-.67759289.41593676-.77789918 2.90534788-.88154902 6.51723417-.4545308 8.9866796 1.06296011.2932765.18055132.3859404.56458113.205389.8574755zm.0840663-2.26825962c-2.5783494-1.53143827-6.8322915-1.67224919-9.29399897-.92511061-.39530233.1198899-.81334074-.10326772-.93313511-.49857004-.11979438-.39549338.10317218-.81324521.49876109-.9334217 2.82586709-.85785762 7.52354509-.69211341 10.49203819 1.07012485.3563262.21102533.4728725.67023709.2617517 1.02532137-.2101656.35556192-.6706193.47277699-1.0250348.26165613z" fill="#1ed760" transform="translate(8.267647)"/><path d="m7.99502749 0s-5.00064646 0-6.25574211.32613533c-.67202153.18776908-1.22537908.74113272-1.41315005 1.42303785-.32613533 1.25509652-.32613533 3.85429826-.32613533 3.85429826s0 2.60906875.32613533 3.8444107c.18777097.68189586.73124562 1.22537686 1.41315005 1.41315056 1.26497855.3360223 6.25574211.3360223 6.25574211.3360223s5.01056021 0 6.26562981-.3261348c.6819094-.1877697 1.2253729-.7213702 1.4032622-1.41315049.3360519-1.24522636.3360519-3.8444107.3360519-3.8444107s.0098461-2.60908931-.3360519-3.86418583c-.1778893-.68190513-.7213528-1.22537322-1.4032622-1.40326271-1.2550696-.34591047-6.26562981-.34591047-6.26562981-.34591047zm-1.59112599 3.20202744 4.1606587 2.401444-4.1606587 2.39155644z" fill="#f00" transform="matrix(.98480775 -.17364818 .17364818 .98480775 .417011 15.125712)"/><g transform="matrix(.98480775 .17364818 -.17364818 .98480775 22.64476 8.214743)"><use fill="url(#a)" xlink:href="#c"/><use fill="url(#b)" xlink:href="#c"/></g><path d="m18.3025396 1.76076335c-.6734162.29864893-1.3971093.50049302-2.1566858.59127265.775309-.46474352 1.3706653-1.20062088 1.6510379-2.07742092-.7255007.430266-1.529128.74277288-2.3844382.91121061-.684998-.72978524-1.660879-1.18582569-2.740862-1.18582569-2.0738059 0-3.75510355 1.68123075-3.75510355 3.75490266 0 .29429739.03327245.58089592.09727342.85571184-3.12078414-.15658817-5.88762147-1.65150645-7.73963308-3.92327344-.32321834.5545859-.50839272 1.1996167-.50839272 1.88776112 0 1.3027145.66297249 2.45205427 1.6705193 3.12540348-.61557428-.01948146-1.19452875-.18838782-1.70084613-.46963062-.00026778.01566552-.00026778.03139798-.00026778.04719738 0 1.81934164 1.29434617 3.33702182 3.01212978 3.68193082-.31511779.08582561-.64683835.13168406-.98933731.13168406-.24194513 0-.47719559-.02349832-.70642086-.06734835.47779811 1.49183875 1.86453063 2.57744535 3.50766875 2.60777215-1.28510753 1.0070782-2.90421181 1.6073887-4.66343539 1.6073887-.3030674 0-.60198411-.0177409-.89574593-.0524193 1.66174929 1.0653887 3.63553682 1.6869882 5.75607137 1.6869882 6.90675003 0 10.68361123-5.72172779 10.68361123-10.68374515 0-.1628142-.0036151-.3247581-.0108454-.48576476.7336012-.52941396 1.3702637-1.19077973 1.8737024-1.94379544" fill="#55acee" transform="translate(12.267647 8.562966)"/><path d="m0 6c0 3.3084 2.6916 6 6 6s6-2.6916 6-6-2.6916-6-6-6-6 2.6916-6 6zm3 0c0-.33137085.26862915-.6.6-.6h1.8v-1.8c0-.33137085.26862915-.6.6-.6s.6.26862915.6.6v1.8h1.8c.33137085 0 .6.26862915.6.6s-.26862915.6-.6.6h-1.8v1.8c0 .33137085-.26862915.6-.6.6s-.6-.26862915-.6-.6v-1.8h-1.8c-.33137085 0-.6-.26862915-.6-.6z" fill="#525252" transform="translate(13.535295 17.25)"/></g></svg>