<svg height="70" viewBox="0 0 70 70" width="70" xmlns="http://www.w3.org/2000/svg"><path d="m9.475 33.975a3.486 3.486 0 0 0 1.026-2.475v-14a3.5 3.5 0 0 1 3.499-3.5 3.5 3.5 0 1 0 0-7c-5.79 0-10.5 4.711-10.5 10.5v12.551l-2.475 2.475a3.496 3.496 0 0 0 0 4.948l2.475 2.475v12.55c0 5.791 4.71 10.501 10.5 10.501a3.5 3.5 0 0 0 0-7 3.5 3.5 0 0 1 -3.5-3.5v-14a3.486 3.486 0 0 0 -1.026-2.475l-1.024-1.025zm60.26-.315a3.503 3.503 0 0 0 -.76-1.134l-2.475-2.476v-12.55c0-5.79-4.71-10.5-10.5-10.5a3.5 3.5 0 1 0 0 7 3.5 3.5 0 0 1 3.5 3.5v14a3.49 3.49 0 0 0 1.026 2.475l1.024 1.025-1.025 1.025a3.486 3.486 0 0 0 -1.025 2.475v14a3.5 3.5 0 0 1 -3.5 3.5 3.5 3.5 0 1 0 0 7c5.79 0 10.5-4.711 10.5-10.5v-12.551l2.475-2.475c1-1 1.3-2.506.76-3.814zm-25.295-15.166a3.507 3.507 0 0 0 -5.705 1.211l-13.986 28a3.496 3.496 0 0 0 1.96 4.546c1.797.71 3.83-.16 4.557-1.95l13.982-27.999a3.49 3.49 0 0 0 -.805-3.808z" fill="#52525b"/></svg>