<svg width="64" height="64" viewBox="0 0 64 64" xmlns="http://www.w3.org/2000/svg">
    <path d="M32 .002C49.642.002 64 14.356 64 32c0 17.646-14.357 32-32 32C14.354 64 0 49.646 0 32 0 14.356 14.355.002 32 .002zm0 1.467C15.163 1.47 1.466 15.165 1.466 32c0 16.836 13.697 30.533 30.532 30.533S62.53 48.836 62.53 32C62.53 15.165 48.835 1.47 32 1.47zm.48 32.932 8.44 23.117c.054.136.121.261.195.379a27.45 27.45 0 0 1-16.87.438L32.48 34.4zM6.926 20.83 20.02 56.706C10.863 52.256 4.55 42.866 4.55 32c0-3.98.853-7.757 2.376-11.171zm49.161-1.999A27.302 27.302 0 0 1 59.45 32c0 10.128-5.49 18.97-13.65 23.728l8.385-24.243c1.567-3.915 2.087-7.047 2.087-9.832 0-1.01-.067-1.948-.185-2.823zM32 4.55a27.35 27.35 0 0 1 18.537 7.207c-.118-.007-.234-.022-.355-.022-2.696 0-4.61 2.349-4.61 4.872 0 2.261 1.304 4.176 2.696 6.437 1.045 1.829 2.264 4.178 2.264 7.571 0 2.35-.904 5.077-2.09 8.874l-2.738 9.15-9.92-29.509c1.651-.087 3.141-.262 3.141-.262 1.479-.175 1.305-2.348-.176-2.26 0 0-4.445.347-7.316.347-.691 0-1.503-.022-2.33-.056l-.495-.022-.46-.022c-2.062-.103-3.945-.248-3.945-.248-1.48-.087-1.653 2.175-.174 2.261 0 0 1.4.175 2.879.262l4.277 11.718-6.008 18.017L15.18 19.13a54.593 54.593 0 0 0 2.407-.184l.25-.025.452-.049.033-.004c1.478-.175 1.304-2.348-.176-2.26 0 0-4.445.348-7.316.348-.515 0-1.122-.014-1.766-.033C13.972 9.47 22.409 4.55 31.999 4.55z" fill="#525252" fill-rule="nonzero"/>
</svg>
