<svg viewBox="0 0 10 16" xmlns="http://www.w3.org/2000/svg"><path d="m41.6536648 46.7060183c.8870168 0 1.6469611.7375197 1.6544359 1.6394863h-.0012458c-.0107473.9087468-.7444517 1.6430041-1.6531901 1.6544359-.5538096.0047017-1.0727876-.2696767-1.3807495-.7299881s-.3635375-1.0447197-.1478597-1.5548278c.2571636-.6157199.8613654-1.0145818 1.5286092-1.0091063zm.4061341-12.7060183c2.8728383 0 4.851185 1.8026874 4.851185 4.345386 0 1.675177-.8196685 2.7889696-2.1388519 3.6098936l-.6263576.3801451-.1325598.0823042-.1217258.0789645c-.0194067.012966-.0383785.0258557-.0569237.0387002l-.1062162.0767769c-.4723962.3581082-.6231841.7300291-.6332817 1.8040487v1.4227152h-2.6610506v-1.4227152c.0095831-1.8840484.3671085-2.5311325 1.0317486-3.0288555l.1019942-.0736742c.0173813-.0121377.0349532-.024216.0527151-.0362519l.1088469-.071843.1133771-.0716418.5421646-.3279071c.041204-.0251007.0831463-.0508475.1259191-.0774248.9094414-.5718268 1.6095868-1.293151 1.6095868-2.3458606 0-1.1810281-.925637-1.9484471-2.0755198-1.9484471-1.0614303 0-2.0643076.4958324-2.1328271 1.909827h-2.823006c.0747487-2.8578886 2.3383858-4.3441402 4.9707828-4.3441402z" fill="#525252" transform="translate(-37 -34)"/></svg>