<svg viewBox="0 0 64 64" xmlns="http://www.w3.org/2000/svg" xmlns:xlink="http://www.w3.org/1999/xlink"><defs><radialGradient id="a" cx="26.562627%" cy="107.702106%" r="99.107386%"><stop offset="0" stop-color="#fd5"/><stop offset=".1" stop-color="#fd5"/><stop offset=".5" stop-color="#ff543e"/><stop offset="1" stop-color="#c837ab"/></radialGradient><radialGradient id="b" cx="-16.750527%" cy="7.203832%" r="44.301409%"><stop offset="0" stop-color="#3771c8"/><stop offset=".128" stop-color="#3771c8"/><stop offset="1" stop-color="#60f" stop-opacity="0"/></radialGradient><path id="c" d="m29.6417883 0h12.7837493l4.3033137.01924982 1.7810114.025075.9900878.02801183.7369276.03655575.640657.05352654.2801151.03227383.7103176.0987508c3.0854527.4450889 5.6747126 1.67597634 7.7919001 3.69857059 1.1863339 1.14177119 2.0034768 2.25843228 2.7393976 3.75371434.84413 1.71918774 1.2840456 3.3511486 1.5011419 5.6798984l.0419244.5153946.0201386 1.2591384.0221501 4.117522.0162442 9.8350824-.0222017 17.2590321-.0310783 3.5034742-.0075619.1877566c-.1993631 2.5292275-.6399311 4.2721641-1.5087607 6.0643363-1.7278141 3.56465-4.9028571 6.1642843-8.7375215 7.1539178-1.1298784.292028-2.1720163.458269-3.6848457.5650089l-.7336843.0452811-.6378412.0272523-4.6831032.0299977-8.4006631.0111787-16.7165238-.0232619-3.6812974-.0300979-.1680307-.0049917c-1.870568-.0886238-3.327642-.2757187-4.6468847-.6154437-3.81005158-.9847099-7.04416515-3.6237326-8.73752143-7.1391471-.83683304-1.7344572-1.25654097-3.3283805-1.48720097-5.7481845l-.04167936-.472662-.02529706-.6390782-.04014584-5.0272233-.00815717-5.0951429v-18.7465614l.01816419-3.3425764.03995227-2.2764052.02430227-.6428692.0294568-.5168372.0674291-.7296906.11082466-.8103225c.44549053-3.08312685 1.67612736-5.67685287 3.70667812-7.78511688 1.11495696-1.15604949 2.24468157-1.98074407 3.67714283-2.69219702 1.75548976-.87420361 3.37486499-1.30792124 5.85917719-1.54545254l.5720667-.04826655 1.3406455-.03313446 4.5454391-.0261558 2.7781161-.00503486zm8.4501382 8.39492317-2.2986924-.01900873-7.7729079.0007413-2.4013213.02245597-1.54369.03815046-1.8233607.07555539c-2.5154216.11521106-4.2324061.51352624-5.7347676 1.0979516-1.5540482.60362724-2.8723063 1.41108934-4.1856419 2.72518484-1.3143202 1.313603-2.1216179 2.6321297-2.72709124 4.186002-.58578313 1.5031597-.98450946 3.2209862-1.09772805 5.7359355l-.0631925 1.500909-.02928647.9183728-.02312475 1.131882-.02442307 3.6308832.00406775 6.4515729.02335407 2.5111231.04625509 1.7609797.06684213 1.5816873c.11567987 2.5159339.51391394 4.2332681 1.09772805 5.7359354.60399659 1.5543647 1.41129429 2.8728913 2.72512219 4.1864944 1.3128434 1.3145878 2.6311015 2.1240194 4.1841652 2.7276466 1.4149138.5500474 3.0195076.9352359 5.3001004 1.0747012l1.9441718.0876106 1.4832928.0424854 2.2078436.0262627 3.0212206.0090287 5.4950615-.0059752 2.4006194-.022456 1.5429763-.0381504 1.8229234-.0755554c2.5154217-.1152111 4.2343752-.5135262 5.7377212-1.0979516 1.5535559-.6036272 2.869845-1.4130588 4.1826884-2.7276466 1.3143201-1.3136031 2.1216179-2.6321297 2.7270912-4.186002.5808606-1.5031597.9795869-3.2209863 1.0977281-5.7359355l.0897417-2.3047502.0321873-1.6785748.0190886-3.4555668-.0037825-5.9746862-.0274585-2.8967968-.0403214-1.510899-.0694552-1.6661362c-.1181412-2.5159339-.5168675-4.2332681-1.0977281-5.7359355-.6054733-1.5543646-1.4127711-2.8728913-2.7270912-4.1864943-1.3143201-1.3145878-2.6286403-2.12205-4.1841652-2.72518484-1.5062995-.58442536-3.2242685-.98274054-5.7396902-1.0979516l-1.1738336-.05133694-1.283204-.04321042zm-8.2169155 4.22807373v.0059083l5.7750901.0047557 2.7537581.0240475 1.4029279.035338 1.7356455.0717487c1.4974389.0684866 2.5498057.2551285 3.3317599.4662232l.3423371.0988234.3077513.1002488.2769814.0996269c.0438114.0164389.0864997.0327667.1281445.0489405 1.1026506.4283488 1.8887814.940398 2.715277 1.7675544.826988.8271564 1.3389329 1.6149243 1.768179 2.7177995l.0985416.2628141.1002073.2917351c.0167258.0512443.0334354.1038525.0500859.1579038l.0988516.3422618c.1949152.7217013.3689903 1.6740906.4482216 2.9943577l.0612763 1.3249769.0572985 1.78345.0273955 2.1909628.0090759 3.0911539-.0059829 5.5124823-.0321654 2.8342085-.0333549 1.1376867-.0657539 1.5564152c-.0526712 1.1521107-.1752427 2.0408114-.3250727 2.7454945l-.0928279.4013628c-.0159028.0634252-.0319929.125169-.0482276.1853107l-.0988033.3422618-.1002284.3076247c-.0167097.048596-.0333936.0959076-.0500089.1420142l-.0985283.2628142c-.4282616 1.1028751-.941191 1.8881813-1.768179 2.7148453-.8269879.8271564-1.6121342 1.3392056-2.715277 1.7675544l-.2627883.098921-.2917505.1004394c-.0512496.0167539-.1038643.0334866-.157923.0501559l-.3423157.0989173c-.7218232.1949622-1.6743936.368637-2.9944481.4480691l-1.9762226.0865675-1.2956852.0354653-1.8977175.02317-3.2214788.0099346-5.5140609-.0059841-2.8345178-.0321719-1.1375371-.0333617-1.5560742-.0657673c-1.4974389-.0691266-2.5498057-.2559926-3.3318951-.4671656l-.3424096-.0988503-.3078459-.1002608c-.0486395-.0167143-.0959979-.0334023-.1421549-.0500215l-.2631609-.0985493c-1.1026506-.4283488-1.8902582-.940398-2.7172461-1.7675543-.826988-.8271564-1.3389329-1.6129549-1.768179-2.7163224l-.0985415-.2628142-.1002073-.2917351c-.0167259-.0512443-.0334354-.1038524-.050086-.1579038l-.0988516-.3422618c-.0162429-.0601417-.0323411-.1218855-.0482518-.1853107l-.0928707-.4013628c-.1349025-.6342148-.2476756-1.4174839-.3070991-2.4076842l-.0733429-1.6285575-.0444762-1.4801651-.0233373-1.719488-.0119611-3.5653494.0059073-5.5670251.0293911-2.7052892.0345492-1.2134814.049836-1.2093319.0156448-.3465875c.0579384-1.2673218.200456-2.2159175.3707969-2.9516221l.0953314-.3808164.0988033-.3424068.1002283-.3078139.0996066-.2770378c.0164356-.0438204.03276-.0865174.0489306-.1281706.4282616-1.1028752.941191-1.8906431 1.768179-2.7177995.8269879-.8271563 1.6145955-1.3392055 2.7172461-1.7685391l.2630412-.0989215.2919268-.1004428.3246223-.0999407c.05704-.0165025.1156011-.0328998.1757626-.0491497l.3808095-.0953931c.668808-.1549164 1.5135356-.2866614 2.6135588-.353077l1.5913343-.0717044 1.279359-.0402768 1.9358739-.0280592zm2.1191566 7.2435264c-6.7005714 0-12.1335868 5.4341219-12.1335868 12.1365502s5.4330154 12.1340884 12.1340791 12.1340884c6.7010636 0 12.13211-5.4316601 12.13211-12.1340884s-5.4315387-12.1365502-12.1326023-12.1365502zm.0004923 4.2588706c4.3495628 0 7.8760756 3.5267387 7.8760756 7.8776796 0 4.3504486-3.5265128 7.8776797-7.8760756 7.8776797-4.3500551 0-7.8760757-3.5272311-7.8760757-7.8776797 0-4.3509409 3.5260206-7.8776796 7.8760757-7.8776796zm12.6125507-7.5734043c-1.5653701.0009847-2.8353873 1.2697835-2.8353873 2.8359647 0 1.5656888 1.2700172 2.8359647 2.8353873 2.8359647 1.56537 0 2.8353872-1.2702759 2.8353872-2.8359647s-1.2700172-2.8359647-2.8353872-2.8359647z"/></defs><g fill="none"><use fill="url(#a)" xlink:href="#c"/><use fill="url(#b)" xlink:href="#c"/></g></svg>