<svg viewBox="0 0 64 64" xmlns="http://www.w3.org/2000/svg" xmlns:xlink="http://www.w3.org/1999/xlink"><linearGradient id="a" x1="49.995318%" x2="49.995318%" y1="-.013965%" y2="99.986294%"><stop offset="0" stop-color="#f79810"/><stop offset="1" stop-color="#f8310e"/></linearGradient><path d="m.72481016 34.7165376c-.13354149 0-.23953398.1029182-.2568006.2496588l-.46800956 3.5426542.46800956 3.4816251c.01726662.1467405.12319445.2489498.2568006.2489498.129338 0 .23468381-.1015004.25531322-.2476609v-.0007089.0007089l.55473069-3.4829785-.55473069-3.5432986c-.01998272-.1460962-.12662191-.2489499-.25531322-.2489499zm2.63196367-1.9355967c-.02205213-.1522184-.13147208-.2571988-.26637162-.2571988-.13561089 0-.24781161.108396-.26637161.2571988 0 .0013534-.62910004 5.7279097-.62910004 5.7279097l.62910004 5.601018c.01791331.1502206.13011403.2586166.26637161.2586166.13418818 0 .2436728-.1056249.26566026-.2571988l.7157565-5.6024358zm9.91401647-5.2834345c-.258094 0-.4715017.2105408-.4838534.4780508l-.5010555 10.5380623.5010555 6.8102584c.0130631.2660922.2257594.4759886.4838534.4759886.256736 0 .4694323-.2106053.4845648-.4773419v.0020622l.5664358-6.8109673-.5664358-10.5380623c-.0151972-.26751-.2278935-.4780508-.4845648-.4780508zm-5.13116184 3.6626502c-.19821049 0-.35994766.1577607-.37585624.3683015l-.56436637 6.9823903.56436637 6.7553515c.01513255.2091875.17758108.3669482.37585624.3669482.19614108 0 .35787825-.1577607.37514487-.3669482l.64145182-6.7553515-.64145182-6.9838081c-.01726662-.209123-.17900379-.3668837-.37514487-.3668837zm10.34561744 14.6390655c.3200469 0 .5802102-.2572633.5932734-.5865113l.4914844-6.6956758-.4907731-14.0299985c-.0130631-.329248-.2732912-.5864468-.5932734-.5864468-.3228276 0-.5836377.2579077-.5940494.5871557l-.4356751 14.0285808.4356751 6.6984468c.010347.3265414.2711571.5844491.5933381.5844491zm10.6752353.0315779c.4405252 0 .803965-.3614704.812178-.8059455v.0047689-.0047689l.3428103-6.503695-.342875-16.2035895c-.0075663-.4437662-.3716528-.805881-.812178-.805881-.4411719 0-.8052584.3614704-.812178.8065899l-.3062724 16.1974028c0 .0103112.3062724 6.5132328.3062724 6.5132328.0069843.4403507.3717174.8018855.8122427.8018855zm-5.3782621-.0253913c.3834225 0 .6924109-.3066279.702758-.6975494v.0047689l.4170504-6.5941754-.4177618-14.1314989c-.010347-.390986-.3193355-.6968406-.702758-.6968406-.3861386 0-.6951271.305919-.7034047.6968406l-.3709414 14.1322078.3716527 6.592822c.0082777.3867971.3172662.693425.7034048.693425zm-13.0870011-.061738c.2278289 0 .4123296-.1817985.4295315-.4211461l.6043318-6.8116118-.6043318-6.4796571c-.0164906-.2393476-.2009266-.4197928-.4295315-.4197928-.2311916 0-.4156923.181734-.4301135.4225639l-.53209653 6.476886.53209653 6.8109673c.0151326.2399921.1988572.4217906.4301135.4217906zm-5.09048504-.3731348c.16652268 0 .30142222-.1310161.32069358-.3121057l.67863649-6.5489352-.6779898-6.7958228c-.01998272-.1817341-.15488226-.3128146-.32140494-.3128146-.16865675 0-.30355629.131725-.32075824.3128146l-.59741223 6.7958228.59741223 6.5475819c.01655526.181734.1514548.313459.32082291.313459zm20.85633474-21.2188696c-.4164037 0-.7502897.3299569-.7585027.7524563l-.3386069 13.6156836.3386069 6.5516418c.0082777.4170217.3413877.7469786.7585027.7469786.4156924 0 .747509-.329248.75708-.7517475v.0054778l.3799304-6.5516418-.3799304-13.6178103c-.0096356-.4210816-.3414523-.7510385-.75708-.7510385zm-10.5927176 21.6612825c.2877124 0 .5251769-.2339343.5389514-.5323133l.5286044-6.7650182-.5286044-12.9482942c-.0144858-.2990879-.251239-.5322488-.5389514-.5322488-.2904285 0-.5271817.2338698-.5395982.5322488l-.4680095 12.9482942.4687209 6.7677894c.0116404.2956078.2483936.5295421.5388868.5295421zm5.9027277-.6385826v-.00348l.4542351-6.6531423-.4542351-14.5025715c-.0110584-.3600526-.29599-.6426426-.6477247-.6426426-.3538041 0-.6387357.2818811-.6483067.6426426l-.4033406 14.5018626.4039872 6.6566223c.0096357.356637.294632.6385181.6477248.6385181.3523813 0 .6359549-.2818811.6477247-.6405803v.0027711zm34.3576054-15.0163247c-1.0785496 0-2.107498.2174364-3.0449399.6090669-.6263839-7.0701639-6.5758673-12.6163395-13.8330873-12.6163395-1.7757461 0-3.5068059.3484525-5.0354517.9376059-.5939848.229101-.7522945.465033-.7577914.922526v24.8979532c.0062083.4801131.3799304.8799925.8500741.9273593.0199827.0020622 21.6801531.0130178 21.8206142.0130178 4.3471796 0 7.8718988-3.5124941 7.8718988-7.8452403 0-4.3328108-3.5240725-7.8459493-7.8713168-7.8459493zm-24.2804937-10.1690519c-.4728597 0-.8610031.3868615-.8679226.8621412l-.3551622 17.6720909.3558735 6.4137947c.0062082.468513.3944163.8546656.8672113.8546656.471437 0 .859645-.3861526.8665-.8614968v.0075401l.3861386-6.4145036-.3861386-17.6734442c-.006855-.4739264-.395063-.8607879-.8665-.8607879z" fill="url(#a)"/></svg>